<svg xmlns="http://www.w3.org/2000/svg" viewBox="0 0 474 464">
  <path
    d="M472.1740266 207.3599972c-9.421-84.014-63.166-154.711-137.485-188.297-.868-.379-1.785-.756-2.658-1.139-27.946-11.533-58.608-17.924-90.732-17.924-121.236 0-221.289 90.789-235.86 208.07h98.595c16.579-60.188 71.722-104.391 137.209-104.391 65.227 0 120.211 43.822 137.053 103.68 3.091 10.781 4.88 22.162 5.26 33.857.053 1.633.109 3.256.109 4.879 0 33.641-11.646 64.52-31.15 88.895 4.548 3.145 9.097 6.227 13.707 9.316 10.616 7.098 45.556 20.963 57.582 25.459 2.056.76 3.741 1.518 5.146 2.168 27.139-37.432 43.557-83.152 44.691-132.611.053-1.785.053-3.576.053-5.414-.001-8.995-.49-17.827-1.52-26.548z" />
  <path
    d="M405.0880266 399.6059972c-16.527 10.695-32.338 22.809-49.782 31.705-20.071 10.232-41.392 7.854-60.489-3.68-17.055-10.285-33.844-21.381-49.196-34.014-58.277-47.953-123.664-74.625-200.065-67.729-17.867 1.621-25.729-5.699-29.526-21.211-5.217-21.236-10.451-42.482-16.03-65.111 73.215-5.535 141.003.064 202.646 35.572 36.385 20.957 70.927 45.197 105.762 68.758 29.894 20.232 58.421 42.715 94.893 50.715.591 1.669 1.194 3.333 1.787 4.995z" />
  <path
    d="M277.7530266 456.8439972c-66.1 26.131-192.099-26.738-232.133-98.332 33.635-3.217 66.296-2.035 96.844 11.035 22.153 9.49 43.43 21.699 63.619 34.943 24.661 16.178 47.757 34.727 71.67 52.354z" />
</svg>