<?xml version="1.0" standalone="no"?>
<!DOCTYPE svg PUBLIC "-//W3C//DTD SVG 20010904//EN" "http://www.w3.org/TR/2001/REC-SVG-20010904/DTD/svg10.dtd">
<svg version="1.0" xmlns="http://www.w3.org/2000/svg" width="948.000000pt" height="948.000000pt"
  viewBox="0 0 948.000000 948.000000" preserveAspectRatio="xMidYMid meet">
  <g transform="translate(0.000000,948.000000) scale(0.100000,-0.100000)" fill="#000000" stroke="none">
    <path d="M4579 9376 c-2 -2 -47 -6 -99 -10 -52 -3 -122 -9 -155 -13 -33 -4
-75 -7 -92 -7 -18 -1 -33 -3 -33 -6 0 -3 -12 -6 -27 -7 -16 0 -44 -4 -63 -7
-19 -3 -52 -8 -73 -11 -58 -8 -328 -66 -391 -83 -20 -6 -36 -8 -36 -5 0 3 -6
1 -12 -5 -7 -5 -26 -12 -43 -15 -16 -3 -61 -15 -100 -28 -38 -12 -74 -23 -80
-25 -12 -2 -169 -57 -206 -72 -15 -6 -30 -8 -33 -5 -3 4 -6 1 -6 -5 0 -7 -7
-12 -15 -12 -8 0 -23 -4 -33 -9 -15 -8 -46 -21 -62 -26 -5 -1 -33 -13 -144
-62 -34 -15 -131 -63 -216 -106 -85 -44 -165 -85 -177 -91 -13 -6 -23 -15 -23
-19 0 -5 -4 -5 -10 -2 -5 3 -10 1 -10 -4 0 -6 -6 -11 -14 -11 -8 0 -16 -3 -18
-7 -1 -5 -23 -19 -48 -33 -25 -13 -49 -28 -55 -32 -27 -22 -118 -78 -126 -78
-5 0 -9 -4 -9 -8 0 -4 -15 -16 -32 -27 -46 -26 -182 -127 -186 -137 -2 -4 -8
-8 -13 -8 -8 0 -27 -13 -75 -55 -12 -11 -39 -33 -59 -50 -161 -131 -426 -386
-535 -514 -67 -79 -88 -104 -108 -126 -28 -31 -154 -194 -192 -250 -19 -27
-37 -52 -40 -55 -15 -15 -90 -132 -90 -140 0 -6 -4 -10 -8 -10 -5 0 -14 -10
-20 -22 -6 -13 -22 -39 -34 -59 -106 -170 -324 -592 -332 -643 -1 -6 -4 -16
-8 -21 -31 -50 -195 -530 -211 -620 -2 -11 -9 -38 -15 -60 -6 -22 -13 -51 -16
-65 -3 -14 -12 -56 -21 -95 -8 -38 -17 -82 -20 -97 -3 -16 -8 -43 -11 -60 -3
-18 -7 -44 -9 -58 -2 -14 -8 -58 -14 -99 -6 -41 -10 -76 -7 -78 6 -6 1954 -5
1965 1 5 3 12 23 16 43 4 21 13 52 20 68 7 17 19 48 25 70 29 94 139 341 187
418 13 20 20 37 16 37 -5 0 -3 4 2 8 6 4 24 30 40 57 31 55 118 185 150 226
11 14 29 38 40 53 21 29 32 42 110 132 96 109 251 259 346 334 24 19 49 38 54
42 27 21 85 65 105 78 12 8 33 23 45 33 13 9 28 17 34 17 6 0 11 5 11 10 0 6
7 10 15 10 8 0 15 4 15 10 0 5 11 12 25 16 14 3 25 10 25 15 0 5 4 9 9 9 5 0
52 25 106 55 53 30 99 55 102 55 3 0 39 16 80 36 41 19 84 37 95 39 11 2 25 8
32 13 11 9 168 63 183 64 5 0 15 4 24 9 9 4 27 10 40 13 13 3 58 15 99 26 41
11 89 22 105 25 17 3 66 12 110 20 146 27 277 37 475 38 143 1 309 -8 363 -19
12 -2 42 -7 67 -9 25 -3 52 -8 60 -10 8 -2 34 -7 58 -10 23 -3 61 -12 85 -19
24 -7 51 -12 60 -10 9 1 17 -1 17 -6 0 -4 19 -11 43 -15 53 -10 38 -6 137 -39
163 -54 426 -168 442 -191 4 -5 8 -6 8 -1 0 5 8 2 18 -6 9 -8 44 -30 77 -48
33 -17 79 -45 103 -61 24 -16 45 -29 47 -29 3 0 13 -6 22 -14 19 -15 175 -133
200 -151 74 -52 314 -293 399 -400 21 -27 44 -55 49 -62 24 -30 33 -41 65 -88
19 -27 38 -51 43 -53 4 -2 7 -10 7 -18 0 -8 5 -14 10 -14 6 0 10 -4 10 -9 0
-6 14 -30 30 -54 17 -25 30 -50 30 -56 0 -6 4 -11 8 -11 8 0 118 -212 167
-324 14 -32 44 -113 67 -180 22 -67 42 -128 45 -136 10 -26 12 -33 28 -100 8
-36 18 -74 21 -85 3 -11 7 -31 9 -45 2 -14 7 -36 10 -50 3 -14 7 -38 9 -55 3
-16 7 -43 10 -60 31 -179 38 -584 12 -720 -2 -11 -7 -45 -10 -76 -4 -31 -8
-66 -11 -77 -2 -11 -6 -36 -9 -57 -4 -20 -8 -40 -10 -44 -3 -3 -7 -26 -11 -50
-3 -24 -10 -53 -14 -65 -5 -11 -9 -24 -9 -29 -2 -28 -15 -67 -23 -67 -6 0 -7
-5 -4 -10 6 -10 -33 -140 -63 -210 -9 -19 -16 -39 -17 -45 -3 -27 -151 -330
-199 -409 -20 -32 -36 -62 -36 -67 0 -5 -4 -9 -8 -9 -4 0 -16 -15 -26 -32 -21
-36 -113 -165 -133 -186 -7 -7 -13 -19 -13 -26 0 -8 74 -63 165 -124 161 -108
337 -201 552 -293 54 -23 103 -44 108 -47 6 -4 13 -7 18 -8 4 -1 9 -3 12 -4 3
-1 8 -3 13 -4 4 -1 21 -9 38 -19 17 -9 34 -13 38 -10 3 4 6 1 6 -5 0 -7 3 -11
8 -10 4 1 18 -4 32 -9 14 -6 102 -41 195 -77 94 -37 186 -74 205 -82 19 -8 37
-14 40 -13 3 1 24 -8 47 -19 32 -17 43 -19 51 -9 14 17 174 258 191 287 76
130 152 266 176 315 17 33 34 63 38 66 5 3 8 9 8 12 0 7 20 57 66 157 56 122
129 306 135 340 2 8 6 17 10 20 4 3 9 17 12 30 3 14 17 61 31 105 31 93 26 77
65 225 36 139 33 125 65 283 28 142 36 191 38 225 1 12 3 22 7 22 3 0 5 24 5
53 0 28 2 56 4 62 6 11 6 15 16 130 13 162 16 214 16 415 0 195 -2 250 -17
416 -3 39 -7 89 -9 110 -2 21 -4 39 -5 39 -1 0 -3 11 -5 25 -1 14 -6 54 -10
90 -4 36 -9 69 -12 73 -3 5 -7 23 -9 40 -4 44 -12 96 -18 116 -3 9 -8 30 -11
46 -8 49 -14 76 -20 95 -6 19 -13 49 -20 85 -4 20 -41 154 -69 250 -86 296
-276 724 -446 1009 -97 162 -249 386 -262 386 -6 0 -9 3 -5 6 9 9 -90 135
-263 334 -79 92 -322 335 -410 410 -35 30 -77 67 -94 82 -52 46 -157 127 -246
191 -47 34 -87 64 -90 67 -3 3 -12 10 -21 15 -9 6 -36 23 -60 40 -55 37 -76
50 -116 71 -18 10 -33 21 -33 24 0 3 -16 12 -35 20 -19 8 -35 17 -35 22 0 4
-7 8 -15 8 -8 0 -15 4 -15 8 0 5 -16 14 -35 22 -19 8 -35 18 -35 24 0 5 -3 6
-6 3 -4 -4 -19 2 -33 12 -33 24 -373 190 -398 194 -10 2 -31 9 -48 16 -16 7
-30 11 -30 10 0 -2 -13 4 -30 13 -41 23 -115 49 -115 42 0 -4 -6 -2 -12 4 -12
8 -173 63 -205 68 -7 1 -34 9 -60 18 -26 9 -59 18 -73 20 -14 3 -25 5 -25 6 0
1 -11 4 -24 6 -14 2 -50 11 -80 19 -31 8 -67 16 -81 19 -14 2 -45 9 -70 15
-25 5 -67 13 -95 16 -27 4 -58 8 -67 11 -29 8 -62 14 -118 20 -30 3 -66 7 -80
8 -14 2 -56 7 -95 11 -38 4 -83 10 -100 12 -39 5 -621 14 -626 9z" />
    <path d="M540 4620 c0 -3 -42 -6 -93 -7 -50 0 -132 -4 -182 -7 -50 -3 -128 -8
-174 -11 -46 -2 -85 -6 -87 -7 -2 -2 5 -36 16 -76 10 -40 19 -75 19 -77 1 -3
1 -6 2 -7 0 -2 2 -10 4 -18 10 -45 15 -69 25 -105 6 -22 13 -53 16 -70 3 -16
11 -48 19 -70 7 -22 16 -57 19 -78 3 -21 10 -47 16 -56 5 -10 7 -21 4 -24 -3
-3 -2 -12 2 -19 4 -7 9 -19 10 -28 2 -13 27 -120 38 -161 7 -27 36 -143 41
-164 2 -11 9 -38 15 -60 5 -22 13 -56 16 -75 3 -19 11 -41 16 -47 6 -7 8 -13
5 -13 -3 0 2 -26 10 -57 8 -32 17 -65 18 -73 2 -8 8 -30 14 -47 5 -18 8 -33 6
-33 -4 0 14 -47 46 -116 20 -46 80 -128 113 -156 34 -29 143 -80 178 -83 18
-2 33 -4 33 -5 0 -10 176 -13 250 -5 131 15 550 21 715 10 160 -10 208 -14
250 -20 25 -4 65 -9 90 -11 71 -8 105 -12 105 -14 0 -1 9 -3 20 -4 35 -4 116
-17 138 -22 71 -15 125 -25 150 -29 15 -2 42 -8 60 -14 17 -6 44 -12 58 -15
37 -6 210 -53 287 -78 34 -11 68 -21 75 -22 6 -2 19 -6 27 -9 8 -3 35 -12 60
-20 40 -13 79 -27 145 -53 11 -4 22 -8 25 -9 3 -1 14 -5 25 -10 11 -4 47 -19
80 -32 33 -13 74 -31 92 -39 17 -8 34 -14 38 -14 12 0 453 -221 489 -245 20
-14 39 -25 43 -25 8 0 176 -101 197 -119 10 -9 21 -16 25 -15 8 0 202 -125
219 -143 7 -7 17 -13 22 -13 5 0 15 -6 22 -12 8 -7 21 -17 30 -23 8 -5 44 -30
78 -55 34 -25 69 -49 78 -55 8 -5 29 -22 46 -38 17 -15 36 -27 43 -27 7 0 13
-4 13 -8 0 -5 19 -22 43 -39 38 -28 66 -50 107 -85 8 -7 51 -41 95 -76 44 -35
87 -69 95 -75 12 -10 131 -99 241 -180 8 -7 22 -16 31 -22 287 -191 400 -265
408 -265 6 0 10 -4 10 -9 0 -5 14 -14 31 -21 17 -7 36 -18 42 -24 18 -17 183
-109 257 -144 50 -24 173 -69 210 -77 5 -2 67 -14 105 -22 116 -22 295 -22
420 1 41 8 132 34 175 51 43 16 62 22 74 23 5 0 12 4 15 9 3 4 33 21 66 37 33
17 72 38 86 48 14 9 29 15 33 11 3 -3 6 -2 6 4 0 6 8 13 18 17 9 3 26 11 37
18 62 40 103 65 128 77 15 8 27 18 27 23 0 4 4 8 10 8 11 0 262 166 323 213
20 16 37 25 37 20 0 -4 6 -1 13 7 11 14 120 90 142 99 21 9 129 91 119 91 -5
0 -16 20 -23 45 -7 25 -19 45 -27 45 -20 0 -26 1 -54 12 -14 5 -36 12 -50 15
-38 7 -236 72 -320 105 -118 47 -324 146 -435 210 -27 16 -58 32 -67 35 -10 3
-18 10 -18 15 0 5 -4 6 -10 3 -5 -3 -10 -1 -10 4 0 6 -4 11 -9 11 -7 0 -92 50
-189 112 -15 10 -37 23 -49 29 -13 7 -23 16 -23 21 0 4 -6 8 -14 8 -8 0 -21 6
-28 13 -7 6 -61 44 -118 83 -58 39 -165 112 -238 162 -73 51 -136 92 -138 92
-3 0 -17 11 -32 25 -15 14 -30 25 -34 25 -4 0 -31 18 -60 40 -29 22 -58 40
-65 40 -6 0 -13 4 -15 8 -8 21 -1396 948 -1478 987 -11 5 -20 13 -20 17 0 5
-5 8 -10 8 -6 0 -38 18 -71 40 -33 22 -62 40 -65 40 -2 0 -34 19 -72 43 -37
23 -77 47 -88 54 -31 19 -267 156 -294 172 -26 14 -355 183 -355 182 0 0 -10
2 -22 5 -13 4 -23 10 -23 15 0 5 -3 8 -7 7 -5 -1 -26 6 -48 16 -22 10 -58 24
-80 32 -22 8 -49 18 -60 23 -11 5 -36 16 -55 24 -33 15 -412 144 -428 147 -4
0 -25 5 -47 11 -22 6 -47 13 -55 15 -8 2 -78 20 -155 39 -77 20 -151 37 -165
38 -14 2 -30 6 -35 9 -6 4 -31 9 -55 12 -46 6 -85 13 -85 16 0 1 -13 3 -30 5
-33 4 -43 6 -184 29 -52 9 -97 14 -99 11 -2 -2 -14 0 -26 4 -12 5 -57 12 -101
15 -44 4 -94 9 -110 12 -17 2 -60 6 -96 8 -37 2 -70 5 -75 8 -5 2 -35 4 -66 4
-32 -1 -58 1 -58 4 0 7 -103 9 -548 12 -204 2 -372 1 -372 -2z" />
    <path d="M1518 2245 c-2 -3 -90 -7 -194 -10 -104 -3 -207 -7 -229 -9 -22 -2
-71 -7 -110 -11 -38 -4 -71 -7 -72 -8 -2 -3 155 -247 169 -261 7 -7 20 -24 28
-36 57 -86 256 -309 369 -414 24 -23 63 -59 87 -81 55 -52 75 -70 157 -135 37
-29 67 -57 67 -62 0 -4 5 -8 10 -8 6 0 54 -33 108 -73 53 -40 120 -89 147
-107 28 -19 53 -38 57 -44 5 -7 8 -7 8 -1 0 6 3 6 8 0 9 -13 251 -164 312
-195 25 -12 47 -26 50 -30 10 -13 540 -270 559 -270 4 0 25 -8 47 -19 47 -23
308 -120 332 -124 9 -2 27 -9 40 -15 12 -7 22 -10 22 -7 0 2 17 -1 38 -9 55
-21 153 -50 242 -72 81 -20 281 -65 305 -68 17 -3 30 -5 30 -6 0 -2 28 -7 80
-14 22 -2 54 -7 70 -10 93 -15 138 -20 285 -31 62 -5 354 -5 412 0 26 2 53 7
59 11 8 5 9 3 4 -6 -5 -8 -4 -11 2 -7 11 7 63 16 112 21 15 2 42 6 61 10 19 4
49 9 65 11 17 2 30 4 30 5 0 2 34 10 55 14 12 2 111 31 140 41 46 16 70 29 70
38 0 6 -3 8 -6 4 -3 -3 -13 1 -22 9 -10 7 -62 47 -117 89 -55 41 -104 78 -110
83 -5 4 -26 19 -45 32 -19 14 -37 27 -40 30 -19 20 -142 110 -150 110 -5 0
-10 3 -10 8 0 4 -23 23 -50 42 -27 19 -50 38 -50 43 0 4 -5 7 -11 7 -5 0 -41
25 -79 55 -38 30 -73 55 -78 55 -6 0 -12 7 -16 15 -3 8 -10 15 -16 15 -6 0
-18 6 -25 12 -31 28 -51 43 -202 151 -163 116 -204 145 -232 162 -9 6 -18 12
-21 15 -3 3 -52 36 -110 74 -246 162 -348 226 -360 226 -6 0 -10 5 -10 10 0 6
-4 10 -9 10 -5 0 -56 28 -113 61 -56 34 -132 78 -168 97 -36 19 -87 47 -115
62 -113 62 -393 198 -470 229 -11 5 -40 18 -65 29 -73 34 -178 71 -184 65 -3
-4 -6 -2 -6 4 0 5 -25 16 -55 23 -30 7 -55 17 -55 22 0 5 -4 7 -8 4 -5 -3 -37
4 -72 15 -35 11 -65 17 -68 14 -3 -3 -10 -1 -16 4 -6 5 -24 12 -41 15 -56 10
-123 23 -165 32 -14 3 -41 7 -60 9 -19 2 -48 6 -65 9 -16 2 -59 7 -95 11 -36
3 -83 8 -105 11 -22 2 -102 6 -178 9 -76 3 -142 7 -146 10 -5 2 -10 2 -13 0z" />
  </g>
</svg>