<svg xmlns="http://www.w3.org/2000/svg" viewBox="0 0 1414 640">
  <path
    d="M532.028 352.216c-9.421-84.014-63.166-154.711-137.485-188.297-.868-.379-1.785-.756-2.658-1.139-27.946-11.533-58.608-17.924-90.732-17.924-121.236 0-221.289 90.789-235.86 208.07h98.595c16.579-60.188 71.722-104.391 137.209-104.391 65.227 0 120.211 43.822 137.053 103.68 3.091 10.781 4.88 22.162 5.26 33.857.053 1.633.109 3.256.109 4.879 0 33.641-11.646 64.52-31.15 88.895 4.548 3.145 9.097 6.227 13.707 9.316 10.616 7.098 45.556 20.963 57.582 25.459 2.056.76 3.741 1.518 5.146 2.168 27.139-37.432 43.557-83.152 44.691-132.611.053-1.785.053-3.576.053-5.414-.001-8.995-.49-17.827-1.52-26.548z" />
  <path
    d="m625.174 249.876 29.649-.021.087 113.389c.018 27.771 1.424 46.816 4.217 57.154 4.183 14.906 12.201 26.672 24.04 35.307 11.834 8.629 26.039 12.924 42.609 12.916 16.418-.008 30.33-4.234 41.75-12.654 11.41-8.422 19.259-19.51 23.563-33.242 3.06-9.299 4.575-29.16 4.549-59.586l-.083-113.393 30.072-.018.087 119.373c.026 33.521-3.675 58.734-11.113 75.65-7.438 16.906-18.535 30.133-33.286 39.668-14.741 9.529-33.254 14.313-55.521 14.322-22.411.021-41.068-4.729-55.972-14.24-14.898-9.512-26.043-22.875-33.438-40.064-7.386-17.195-11.096-43.064-11.113-77.619l-.097-116.942zM954.355 255.716c16.348-7.621 33.853-11.436 52.51-11.449 32.574-.031 60.416 12.357 83.548 37.148 23.113 24.791 34.699 54.676 34.726 89.676.026 35.582-11.438 65.863-34.381 90.832-22.953 24.971-50.576 37.477-82.88 37.498-18.229.01-35.009-3.916-50.313-11.807-15.322-7.898-29.187-19.885-41.584-35.975l.101 135.555-29.226.021c0 .297-.062-76.41-.175-230.119 2.483-21.416 9.987-43.199 22.499-65.357 13.763-16.396 28.823-28.41 45.175-36.023zm-14.269 46.857c-17.522 18.906-26.275 42.471-26.253 70.666.018 18.303 3.92 34.883 11.733 49.715 7.806 14.834 18.95 26.568 33.434 35.189 14.484 8.625 29.793 12.943 45.94 12.93 15.877-.008 30.806-4.348 44.774-12.99 13.995-8.652 25.118-20.846 33.386-36.578s12.397-32.162 12.385-49.293c-.014-17.412-4.125-33.791-12.35-49.156-8.233-15.348-19.277-27.336-33.124-35.961-13.859-8.635-29.072-12.939-45.635-12.93-25.335.022-46.76 9.49-64.29 28.408zM1194.302 155.306c6.679 0 12.424 2.498 17.226 7.514 4.807 5.023 7.22 11.078 7.22 18.168.009 7.086-2.392 13.17-7.185 18.281-4.802 5.09-10.538 7.648-17.226 7.648-6.679.014-12.385-2.535-17.13-7.625-4.731-5.1-7.106-11.186-7.11-18.273-.005-7.08 2.361-13.141 7.085-18.168 4.731-5.026 10.437-7.532 17.12-7.545zm-14.545 99.9 29.448-.021.175 242.967-29.439.021-.184-242.967zM1385.239 275.88l-18.784 20.836c-15.881-16.23-31.269-24.35-46.167-24.336-9.595.008-17.811 3.344-24.624 9.986-6.819 6.652-10.224 14.559-10.215 23.709.004 7.682 2.863 15.055 8.582 22.135 5.562 7.531 17.339 16.156 35.307 25.891 21.987 11.943 36.895 23.529 44.704 34.744 7.661 11.363 11.507 24.135 11.516 38.301.018 19.787-6.552 36.598-19.7 50.406-13.14 13.828-29.597 20.734-49.362 20.748-13.228.008-25.86-2.973-37.899-8.945-12.049-5.975-21.975-14.344-29.78-25.125l18.57-22.377c15.051 18.006 30.984 27.004 47.843 26.99 11.69-.014 21.679-4.029 29.946-12.092 8.276-8.055 12.415-17.471 12.406-28.252-.009-9.002-2.732-16.98-8.163-23.908-5.435-6.934-17.758-15.637-36.979-26.113-20.757-11.059-34.822-22.197-42.199-33.412-7.525-10.922-11.297-23.469-11.306-37.646-.018-18.451 5.919-33.783 17.823-45.971 11.887-12.188 26.807-18.281 44.771-18.303 21.018-.01 42.242 10.894 63.71 32.734z" />
  <path
    d="M725.646 509.575c-24.328 0-45.076-5.361-61.655-15.938-16.692-10.66-29.321-25.773-37.559-44.924-8.05-18.734-11.979-45.521-11.996-81.893l-.104-127.775 51.318-.031.092 124.215c.03 33.268 2.108 47.908 3.846 54.334 3.51 12.506 10.049 22.15 19.967 29.383 9.992 7.295 21.821 10.84 36.157 10.84 14.227-.01 25.786-3.453 35.39-10.539 9.581-7.076 16.012-16.16 19.652-27.768 1.89-5.744 4.077-20.045 4.051-56.338l-.092-124.223 51.737-.035.101 130.207c.026 35.373-3.911 61.547-12.03 80.021-8.272 18.809-20.832 33.748-37.328 44.402-16.452 10.648-37.109 16.053-61.389 16.061h-.158zm-89.625-248.873.079 106.102c.021 32.92 3.466 57.592 10.245 73.35 6.574 15.305 16.16 26.82 29.305 35.215 13.039 8.32 29.862 12.537 49.995 12.537v10.836l.14-10.836c20.045-.008 36.747-4.238 49.646-12.588 13.057-8.436 22.621-19.859 29.252-34.932 6.792-15.445 10.223-39.428 10.197-71.271l-.079-108.547-8.398.008.069 102.549c.026 32.338-1.598 52.354-5.09 62.986-4.941 15.771-14.187 28.803-27.414 38.572-13.287 9.787-29.491 14.764-48.192 14.771-18.889 0-35.35-5.045-48.996-15.002-13.803-10.066-23.254-23.904-28.086-41.131-3.1-11.441-4.601-31.059-4.618-60.07l-.079-102.559-7.976.01zM886.855 598.05c-7.186 0-10.83-4.854-10.844-14.422l-.166-227.16.07-.621c2.646-22.756 10.66-46.113 23.83-69.434l1.131-1.641c14.729-17.541 31.181-30.623 48.899-38.877 17.719-8.26 36.931-12.451 57.08-12.463 35.612 0 66.344 13.654 91.475 40.592 24.948 26.746 37.616 59.402 37.642 97.059.026 38.227-12.502 71.258-37.24 98.174-24.982 27.18-55.548 40.977-90.846 41-19.967 0-38.545-4.379-55.29-13.018-9.036-4.654-17.653-10.643-25.76-17.906l.092 118.691-40.073.026zm10.661-240.321c.087 119.748.148 192.631.161 218.643l7.561-.004-.109-156.57 19.435 25.229c11.363 14.746 24.131 25.834 37.961 32.953 13.646 7.041 28.885 10.607 45.285 10.607 29.466-.021 53.964-11.141 74.969-33.996 21.233-23.105 31.553-50.416 31.526-83.49-.026-32.447-10.433-59.369-31.814-82.295-21.162-22.682-45.861-33.705-75.497-33.705-17.099.01-33.225 3.52-48.062 10.434-14.585 6.797-28.31 17.693-40.812 32.412-11.328 20.277-18.256 40.382-20.604 59.782zm107.429 124.178c-18.077 0-35.377-4.861-51.489-14.449-16.146-9.621-28.758-22.891-37.476-39.453-8.596-16.32-12.965-34.742-12.982-54.754-.018-30.9 9.782-57.154 29.143-78.041 19.574-21.129 43.88-31.859 72.228-31.881h.07c18.526 0 35.777 4.902 51.301 14.572 15.409 9.594 27.842 23.066 36.938 40.037 9.045 16.877 13.629 35.133 13.642 54.27.014 18.814-4.565 37.102-13.628 54.34-9.141 17.395-21.683 31.107-37.279 40.75-15.642 9.681-32.623 14.601-50.468 14.609zm-.507-207.742-.053 10.834c-22.39.021-40.819 8.176-56.355 24.939-15.741 16.984-23.385 37.686-23.363 63.291.018 16.467 3.545 31.496 10.485 44.68 6.933 13.16 16.545 23.279 29.392 30.928 12.887 7.674 26.083 11.402 40.34 11.402 13.999-.01 26.781-3.729 39.13-11.367 12.258-7.588 22.181-18.482 29.497-32.408 7.407-14.092 11.157-28.977 11.14-44.238-.013-15.531-3.732-30.355-11.065-44.055-7.286-13.584-17.147-24.314-29.3-31.875-12.197-7.604-25.231-11.297-39.847-11.297v-10.834zM1169.118 509.013l-.205-264.637 51.109-.031.205 264.637-51.109.031zm21.483-242.977.165 221.293 7.771-.008-.157-221.299-7.779.014zm3.692-48.285c-9.604 0-18.255-3.828-25.013-11.07-6.648-7.172-10.014-15.797-10.014-25.654-.009-9.9 3.361-18.514 10.022-25.598 6.74-7.15 15.383-10.939 24.995-10.957 9.604 0 18.273 3.754 25.07 10.852 6.779 7.1 10.228 15.729 10.228 25.65.009 9.889-3.396 18.535-10.118 25.707-6.846 7.252-15.523 11.07-25.127 11.07h-.043zm.009-51.609c-3.688.004-6.548 1.283-9.236 4.139-2.82 3.002-4.139 6.416-4.135 10.729.005 4.348 1.345 7.814 4.222 10.914 2.681 2.871 5.5 4.16 9.141 4.16v10.834l.026-10.834c3.702 0 6.587-1.311 9.368-4.252 2.881-3.074 4.234-6.525 4.229-10.834-.004-4.283-1.345-7.68-4.221-10.691-2.75-2.878-5.657-4.165-9.394-4.165zM1316.425 509.13c-14.815 0-29.16-3.383-42.64-10.066-13.594-6.744-24.939-16.326-33.748-28.479l-4.929-6.807 32.251-38.855 8.338 9.984c12.999 15.541 25.921 23.102 39.497 23.102 8.879-.01 16.203-2.955 22.415-9.016 6.16-5.988 9.142-12.686 9.137-20.48-.009-6.584-1.921-12.215-5.858-17.234-2.527-3.234-10.267-10.551-33.634-23.289-22.495-11.982-37.59-24.092-46.067-36.971-8.626-12.51-13.078-27.242-13.087-43.59-.018-21.309 7.015-39.324 20.91-53.551 13.925-14.283 31.596-21.541 52.505-21.568 23.961 0 47.987 12.105 71.451 35.975l7.146 7.273-33.333 36.977-8.066-8.244c-13.686-13.982-26.606-21.076-38.394-21.076-6.748.004-12.327 2.266-17.09 6.91-4.74 4.627-6.954 9.695-6.945 15.945.005 5.182 2.026 10.193 6.173 15.328 3.432 4.635 11.498 12.043 32.041 23.174 23.729 12.891 39.567 25.346 48.438 38.084 8.948 13.273 13.445 28.195 13.458 44.482.013 22.576-7.617 42.055-22.687 57.883-15.191 15.986-34.442 24.102-57.202 24.109h-.08zm-53.597-44.822c5.788 6.32 12.581 11.375 20.578 15.344 10.459 5.182 21.568 7.814 33.019 7.814V498.3l.062-10.834c16.837-.014 30.417-5.693 41.514-17.379 11.271-11.834 16.741-25.877 16.728-42.928-.013-12.074-3.169-22.621-9.669-32.256-6.709-9.635-20.499-20.203-40.898-31.281-19.574-10.607-32.276-20.084-38.842-28.98-6.993-8.631-10.699-18.369-10.704-28.559-.009-12.145 4.531-22.734 13.484-31.473 8.875-8.652 19.705-13.053 32.181-13.066 15.091 0 30.365 6.617 45.534 19.697l4.335-4.807c-16.676-14.908-32.988-22.455-48.59-22.455-15.087.018-27.195 4.932-37.044 15.033-9.936 10.172-14.764 22.734-14.746 38.398.009 12.047 3.078 22.35 9.39 31.508 6.474 9.826 19.343 19.857 38.376 29.998 21.093 11.49 33.9 20.691 40.409 28.986 6.94 8.852 10.464 19.15 10.472 30.592.014 13.768-5.264 25.885-15.688 36.021-10.298 10.045-22.918 15.148-37.489 15.16-16.775 0-32.661-7.193-47.389-21.416l-5.023 6.049z" />
  <path
    d="m625.174 249.876 29.649-.021.087 113.389c.018 27.771 1.424 46.816 4.217 57.154 4.183 14.906 12.201 26.672 24.04 35.307 11.834 8.629 26.039 12.924 42.609 12.916 16.418-.008 30.33-4.234 41.75-12.654 11.41-8.422 19.259-19.51 23.563-33.242 3.06-9.299 4.575-29.16 4.549-59.586l-.083-113.393 30.072-.018.087 119.373c.026 33.521-3.675 58.734-11.113 75.65-7.438 16.906-18.535 30.133-33.286 39.668-14.741 9.529-33.254 14.313-55.521 14.322-22.411.021-41.068-4.729-55.972-14.24-14.898-9.512-26.043-22.875-33.438-40.064-7.386-17.195-11.096-43.064-11.113-77.619l-.097-116.942zM954.355 255.716c16.348-7.621 33.853-11.436 52.51-11.449 32.574-.031 60.416 12.357 83.548 37.148 23.113 24.791 34.699 54.676 34.726 89.676.026 35.582-11.438 65.863-34.381 90.832-22.953 24.971-50.576 37.477-82.88 37.498-18.229.01-35.009-3.916-50.313-11.807-15.322-7.898-29.187-19.885-41.584-35.975l.101 135.555-29.226.021c0 .297-.062-76.41-.175-230.119 2.483-21.416 9.987-43.199 22.499-65.357 13.763-16.396 28.823-28.41 45.175-36.023zm-14.269 46.857c-17.522 18.906-26.275 42.471-26.253 70.666.018 18.303 3.92 34.883 11.733 49.715 7.806 14.834 18.95 26.568 33.434 35.189 14.484 8.625 29.793 12.943 45.94 12.93 15.877-.008 30.806-4.348 44.774-12.99 13.995-8.652 25.118-20.846 33.386-36.578s12.397-32.162 12.385-49.293c-.014-17.412-4.125-33.791-12.35-49.156-8.233-15.348-19.277-27.336-33.124-35.961-13.859-8.635-29.072-12.939-45.635-12.93-25.335.022-46.76 9.49-64.29 28.408zM1194.302 155.306c6.679 0 12.424 2.498 17.226 7.514 4.807 5.023 7.22 11.078 7.22 18.168.009 7.086-2.392 13.17-7.185 18.281-4.802 5.09-10.538 7.648-17.226 7.648-6.679.014-12.385-2.535-17.13-7.625-4.731-5.1-7.106-11.186-7.11-18.273-.005-7.08 2.361-13.141 7.085-18.168 4.731-5.026 10.437-7.532 17.12-7.545zm-14.545 99.9 29.448-.021.175 242.967-29.439.021-.184-242.967zM1385.239 275.88l-18.784 20.836c-15.881-16.23-31.269-24.35-46.167-24.336-9.595.008-17.811 3.344-24.624 9.986-6.819 6.652-10.224 14.559-10.215 23.709.004 7.682 2.863 15.055 8.582 22.135 5.562 7.531 17.339 16.156 35.307 25.891 21.987 11.943 36.895 23.529 44.704 34.744 7.661 11.363 11.507 24.135 11.516 38.301.018 19.787-6.552 36.598-19.7 50.406-13.14 13.828-29.597 20.734-49.362 20.748-13.228.008-25.86-2.973-37.899-8.945-12.049-5.975-21.975-14.344-29.78-25.125l18.57-22.377c15.051 18.006 30.984 27.004 47.843 26.99 11.69-.014 21.679-4.029 29.946-12.092 8.276-8.055 12.415-17.471 12.406-28.252-.009-9.002-2.732-16.98-8.163-23.908-5.435-6.934-17.758-15.637-36.979-26.113-20.757-11.059-34.822-22.197-42.199-33.412-7.525-10.922-11.297-23.469-11.306-37.646-.018-18.451 5.919-33.783 17.823-45.971 11.887-12.188 26.807-18.281 44.771-18.303 21.018-.01 42.242 10.894 63.71 32.734z" />
  <path
    d="M464.942 544.462c-16.527 10.695-32.338 22.809-49.782 31.705-20.071 10.232-41.392 7.854-60.489-3.68-17.055-10.285-33.844-21.381-49.196-34.014-58.277-47.953-123.664-74.625-200.065-67.729-17.867 1.621-25.729-5.699-29.526-21.211-5.217-21.236-10.451-42.482-16.03-65.111 73.215-5.535 141.003.064 202.646 35.572 36.385 20.957 70.927 45.197 105.762 68.758 29.894 20.232 58.421 42.715 94.893 50.715.591 1.669 1.194 3.333 1.787 4.995z" />
  <path
    d="M337.607 601.7c-66.1 26.131-192.099-26.738-232.133-98.332 33.635-3.217 66.296-2.035 96.844 11.035 22.153 9.49 43.43 21.699 63.619 34.943 24.661 16.178 47.757 34.727 71.67 52.354z" />
</svg>