<svg xmlns="http://www.w3.org/2000/svg" viewBox="0 0 127 60">
  <path
    d="M26.110019 13.8300093h4.54v33.66h-4.35v-6.14q-1.79 3.07-4.93 4.76-3.13 1.7-7.17 1.7-6.59 0-10.4-3.68-3.8-3.68-3.8-10.78v-19.52h4.54v19.07q0 5.31 2.62 8.06 2.63 2.75 7.49 2.75 5.31 0 8.39-3.23 3.07-3.23 3.07-8.99v-17.66zm34.62-.26q4.74 0 8.58 2.14 3.84 2.15 6.01 6.05 2.18 3.91 2.18 8.9 0 5.05-2.18 8.96-2.17 3.9-5.98 6.05-3.81 2.14-8.61 2.14-4.09 0-7.39-1.7-3.3-1.69-5.41-4.96v18.76h-4.54v-46.08h4.35v6.65q2.05-3.33 5.41-5.12 3.36-1.79 7.58-1.79zm-.32 30.21q3.52 0 6.4-1.63 2.88-1.64 4.51-4.64 1.64-3.01 1.64-6.85t-1.64-6.82q-1.63-2.97-4.51-4.64-2.88-1.66-6.4-1.66-3.58 0-6.43 1.66-2.85 1.67-4.48 4.64-1.63 2.98-1.63 6.82 0 3.84 1.63 6.85 1.63 3 4.48 4.64 2.85 1.63 6.43 1.63zm26.37 3.71v-33.66h4.54v33.66h-4.54zm2.3-41.02q-1.4 0-2.36-.96t-.96-2.31q0-1.28.96-2.24.96-.96 2.36-.96 1.41 0 2.37.93.96.93.96 2.21 0 1.41-.96 2.37-.96.96-2.37.96zm23.94 41.34q-4.1 0-7.84-1.18-3.74-1.19-5.86-2.98l2.05-3.58q2.11 1.66 5.31 2.72 3.2 1.05 6.66 1.05 4.61 0 6.82-1.44 2.2-1.44 2.2-4.06 0-1.86-1.21-2.91-1.22-1.06-3.07-1.6-1.86-.55-4.93-1.06-4.1-.77-6.59-1.57-2.5-.8-4.26-2.72-1.76-1.92-1.76-5.31 0-4.22 3.52-6.91 3.52-2.69 9.79-2.69 3.27 0 6.53.86 3.26.87 5.38 2.28l-1.99 3.64q-4.16-2.88-9.92-2.88-4.35 0-6.56 1.54t-2.21 4.03q0 1.92 1.25 3.07 1.25 1.16 3.11 1.7 1.85.54 5.12 1.12 4.03.77 6.46 1.54 2.43.76 4.16 2.62t1.73 5.12q0 4.42-3.68 7.01t-10.21 2.59z" />
</svg>