<svg xmlns="http://www.w3.org/2000/svg" viewBox="0 0 72 72">
  <path
    d="M66 30H51.3c-4.8 0-8.7-3.9-8.7-8.7V6.69999c0-1.3 1.1-2.4 2.4-2.4 1.3 0 2.4 1.1 2.4 2.4V21.4c0 2.1 1.7 3.9 3.9 3.9H66c1.3 0 2.4 1.1 2.4 2.4 0 1.3-1.1 2.3-2.4 2.3ZM20.7 30H6.00001c-1.3 0-2.4-1.1-2.4-2.4 0-1.3 1.1-2.4 2.4-2.4H20.7c2.1 0 3.9-1.7 3.9-3.9V6.69999c0-1.3 1.1-2.4 2.4-2.4 1.3 0 2.4 1.1 2.4 2.4V21.4c-.1 4.7-4 8.6-8.7 8.6ZM26.9 69.1c-1.3 0-2.4-1.1-2.4-2.4V52c0-2.1-1.7-3.9-3.9-3.9H6.00001c-1.3 0-2.4-1.1-2.4-2.4 0-1.3 1.1-2.4 2.4-2.4H20.7c4.8 0 8.7 3.9 8.7 8.7v14.7c-.1 1.3-1.1 2.4-2.5 2.4ZM45.1 69.1c-1.3 0-2.4-1.1-2.4-2.4V52c0-4.8 3.9-8.7 8.7-8.7H66c1.3 0 2.4 1.1 2.4 2.4 0 1.3-1.1 2.4-2.4 2.4H51.3c-2.1 0-3.9 1.7-3.9 3.9v14.7c.1 1.3-1 2.4-2.3 2.4Z" />
</svg>