<svg xmlns="http://www.w3.org/2000/svg" viewBox="0 0 72 72">
  <path
    d="M66 29.7c-1.3 0-2.4-1.1-2.4-2.4V12.6c0-2.1-1.7-3.89998-3.9-3.89998H45.1c-1.3 0-2.4-1.1-2.4-2.4 0-1.3 1.1-2.4 2.4-2.4h14.7c4.8 0 8.7 3.9 8.7 8.69998v14.7c-.1 1.3-1.2 2.4-2.5 2.4ZM6.00001 29.7c-1.3 0-2.4-1.1-2.4-2.4V12.6c0-4.79998 3.9-8.69998 8.69999-8.69998H27c1.3 0 2.4 1.1 2.4 2.4 0 1.3-1.1 2.4-2.4 2.4H12.3c-2.1 0-3.89999 1.69998-3.89999 3.89998v14.7c0 1.3-1.1 2.4-2.4 2.4ZM26.9 68.7H12.3c-4.79999 0-8.69999-3.9-8.69999-8.7V45.4c0-1.3 1.1-2.4 2.4-2.4 1.3 0 2.4 1.1 2.4 2.4v14.7C8.40001 62.2 10.1 64 12.3 64H27c1.3 0 2.4 1.1 2.4 2.4 0 1.3-1.1 2.3-2.5 2.3ZM59.7 68.7H45.1c-1.3 0-2.4-1.1-2.4-2.4 0-1.3 1.1-2.4 2.4-2.4h14.7c2.1 0 3.9-1.7 3.9-3.9V45.4c0-1.3 1.1-2.4 2.4-2.4 1.3 0 2.4 1.1 2.4 2.4v14.7c-.1 4.7-4 8.6-8.8 8.6Z" />
</svg>