<svg xmlns="http://www.w3.org/2000/svg" viewBox="0 0 24 24">
  <path
    d="M3.529 3.146a.603.603 0 0 0-.357.309c-.05.098-.058.467-.054 2.54.006 2.672-.001 2.595.255 2.782.15.11.598.117.758.013.245-.161.248-.178.262-1.906l.013-1.576L6.553 7.45c2.304 2.299 2.272 2.272 2.583 2.186.175-.048.452-.325.5-.5.086-.311.113-.279-2.186-2.583L5.308 4.406l1.576-.013c1.417-.012 1.589-.02 1.706-.084.173-.095.248-.219.276-.458.046-.385-.142-.664-.476-.709-.351-.048-4.721-.044-4.861.004m14.304-.027c-2.294.021-2.35.023-2.46.104-.185.136-.261.322-.239.588.022.268.094.399.276.498.117.064.289.072 1.706.084l1.576.013-2.142 2.147c-2.299 2.304-2.272 2.272-2.186 2.583.048.175.325.452.5.5.311.086.277.115 2.606-2.209l2.17-2.165v3.246l.091.136c.162.24.653.311.902.129.25-.182.243-.114.249-2.778.005-2.602.009-2.544-.195-2.729-.092-.083-.356-.186-.447-.175-.033.004-1.116.017-2.407.028M8.695 14.446c-.063.047-1.054 1.022-2.202 2.167l-2.087 2.081-.013-1.577c-.015-1.806-.01-1.778-.342-1.925-.218-.096-.528-.078-.69.04-.243.176-.237.117-.243 2.773-.005 2.589-.008 2.549.188 2.72.186.163.177.162 2.688.157 2.673-.006 2.596.001 2.783-.255.112-.153.117-.598.01-.762-.143-.218-.202-.225-1.935-.225h-1.59l2.165-2.17c1.788-1.792 2.172-2.196 2.206-2.321.068-.251-.042-.489-.321-.695-.17-.125-.454-.129-.617-.008m5.993.008c-.279.206-.389.444-.321.695.034.125.418.529 2.206 2.321l2.165 2.17h-1.59c-1.733 0-1.792.007-1.935.225-.107.164-.102.609.01.762.187.256.11.249 2.782.255 2.589.005 2.549.008 2.72-.188.163-.186.162-.177.157-2.688-.006-2.656-.001-2.599-.242-2.773-.259-.188-.77-.109-.923.142-.072.118-.077.221-.077 1.745v1.62l-2.11-2.104c-1.16-1.157-2.162-2.143-2.225-2.19-.163-.121-.447-.117-.617.008" />
</svg>