<svg xmlns="http://www.w3.org/2000/svg" viewBox="0 0 24 24">
  <path
    d="M3.605 3.109c-.137.026-.47.373-.504.524-.064.292-.052.306 2.233 2.597L7.498 8.4H5.854c-1.625 0-1.644.001-1.753.087-.372.292-.26.995.178 1.113.084.022 1.12.039 2.51.041 2.313.003 2.371.001 2.529-.08a.55.55 0 0 0 .243-.243c.081-.158.083-.216.08-2.529-.002-1.39-.019-2.426-.041-2.51-.123-.456-.842-.548-1.137-.146-.08.109-.083.167-.095 1.717l-.011 1.605-2.129-2.126C4.183 3.287 3.939 3.066 3.751 3.085a2.383 2.383 0 0 0-.146.024m16.435.033c-.086.038-.954.875-2.268 2.187l-2.129 2.126-.011-1.605c-.012-1.55-.015-1.608-.095-1.717-.295-.402-1.014-.31-1.137.146-.022.084-.039 1.12-.041 2.51-.003 2.313-.001 2.371.08 2.529a.55.55 0 0 0 .243.243c.158.081.216.083 2.529.08 1.39-.002 2.426-.019 2.51-.041.438-.118.55-.821.178-1.113-.109-.086-.128-.087-1.753-.087h-1.644l2.164-2.17c2.265-2.271 2.302-2.314 2.235-2.58-.061-.242-.343-.507-.581-.546a.516.516 0 0 0-.28.038M6.494 14.399c-2.254.02-2.328.023-2.415.101-.285.254-.256.809.054 1.037.109.08.167.083 1.717.095l1.604.011-2.142 2.149c-2.261 2.267-2.275 2.283-2.211 2.575.037.165.367.495.532.532.292.064.308.05 2.575-2.211l2.149-2.142.011 1.604c.012 1.55.015 1.608.095 1.717.295.402 1.014.31 1.137-.146.022-.084.039-1.12.041-2.51.003-2.313.001-2.371-.08-2.529a.597.597 0 0 0-.569-.313c-.095.006-1.219.019-2.498.03m8.165.052a.556.556 0 0 0-.22.232c-.081.157-.083.216-.08 2.528.002 1.39.019 2.426.041 2.51.123.456.842.548 1.137.146.08-.109.083-.167.095-1.717l.011-1.604 2.149 2.142c2.267 2.261 2.283 2.275 2.575 2.211.165-.037.495-.367.532-.532.064-.292.05-.308-2.211-2.575l-2.142-2.149 1.604-.011c1.55-.012 1.608-.015 1.717-.095.328-.24.335-.833.013-1.062-.093-.067-.278-.072-2.592-.083-2.318-.011-2.501-.007-2.629.059" />
</svg>