<svg xmlns="http://www.w3.org/2000/svg" viewBox="0 0 72 72">
  <path
    d="M65.1 6.49999c-6.1-5.799995-16-5.799995-22.1.1-2.1 2-3.6 4.50001-4.3 7.30001-.2.6-.3 1.3-.5 1.9-1.2 4.4-2.4 9-5.1 11.8l-1.2 1.2-11-11c-.9-.9-2.5-.9-3.4 0-.9.9-.9 2.5 0 3.4l7.9 7.9c-6.3-.9-12.9 1.1-17.8 5.9-8.200003 8.2-8.200003 21.6 0 29.8 4.1 4.1 9.5 6.2 14.9 6.2s10.8-2.1 14.9-6.2c4.8-4.8 6.8-11.5 5.9-17.8l7.9 7.9c.5.5 1.1.7 1.7.7.6 0 1.2-.2 1.7-.7.9-.9.9-2.5 0-3.4l-11-11 1.2-1.2c2.7-2.7 7.1-3.8 11.3-5 .9-.2 1.8-.5 2.7-.7 2.6-.7 4.9-2.1 6.9-4.1 3.1-3.1 4.8-7.2 4.7-11.6-.3-4.4-2.1-8.40001-5.3-11.40001ZM33.9 61.3c-3.1 3.1-7.2 4.8-11.5 4.8s-8.4-1.7-11.5-4.8c-3.1-3.1-4.8-7.2-4.8-11.5s1.7-8.4 4.8-11.5c3.1-3.1 7.2-4.8 11.5-4.8s8.4 1.7 11.5 4.8c6.4 6.4 6.4 16.7 0 23Zm28.2-35.2c-1.3 1.3-3 2.3-4.8 2.8-.8.2-1.7.5-2.6.7-4.6 1.2-9.9 2.7-13.5 6.2L40.1 37l-4.9-4.9 1.2-1.2c3.7-3.7 5.1-9.1 6.4-14 .2-.6.3-1.3.5-1.9.5-1.9 1.6-3.7 3-5.10001 4.3-4.1 11.2-4.1 15.5-.1C64 11.9 65.3 14.8 65.3 17.8c.1 3.2-1.1 6.1-3.2 8.3Z" />
  <path
    d="M22 37.4c-3.3 0-6.4 1.3-8.8 3.6-2.3 2.3-3.6 5.5-3.6 8.8 0 3.3 1.3 6.4 3.6 8.8 2.3 2.3 5.5 3.6 8.8 3.6 3.3 0 6.4-1.3 8.8-3.6 2.3-2.3 3.6-5.5 3.6-8.8 0-3.3-1.3-6.4-3.6-8.8-2.3-2.4-5.5-3.6-8.8-3.6Zm5.4 17.8c-1.4 1.4-3.3 2.2-5.4 2.2-2.1 0-3.9-.8-5.4-2.2-1.5-1.4-2.2-3.3-2.2-5.4 0-2.1.8-3.9 2.2-5.4 1.4-1.4 3.3-2.2 5.4-2.2 2.1 0 3.9.8 5.4 2.2 1.4 1.4 2.2 3.3 2.2 5.4 0 2.1-.8 4-2.2 5.4Z" />
</svg>