<svg xmlns="http://www.w3.org/2000/svg" viewBox="0 0 32 32">
  <path
    d="M26.073023 13.008619c-.137808-.529155-.678348-.846351-1.207503-.708642-3.625281.944064-6.401043 1.379367-9.151758 1.368378-2.753784-.011088-5.533308-.469458-9.170568-1.37115-.530739-.131571-1.067616.191961-1.199088.7227-.131571.53064.191961 1.067517.7227 1.199088 2.139885.530442 4.026726.920502 5.813577 1.158003l.859518.114345v5.426685l-.982377 7.859115c-.06633.530838.301059 1.018413.82962 1.100979.52866.082467 1.027224-.269874 1.125828-.795762l1.485-7.92c.011088-.0594.016731-.119097.016929-.178497h1.98c.000198.0594.005841.119097.016929.178497l1.485 7.92c.098604.525888.597168.878229 1.125729.795762.52866-.082566.896049-.570141.829719-1.100979l-.982377-7.85862v-5.524596l.835263-.132165c1.503612-.237996 3.094839-.586179 4.859316-1.045638.529056-.137808.846351-.678348.708543-1.207503zm-1.706463-2.624688c1.587366-.413325 3.209283.538362 3.622608 2.125728.413325 1.587366-.538461 3.209283-2.125827 3.622608-1.492821.388674-2.882484.704385-4.21344.943767v3.719232l.967032 7.736256c.199089 1.592613-.903177 3.055338-2.488959 3.302838-1.585881.247599-3.081474-.809523-3.377187-2.387088l-.545886-2.911293-.545886 2.911293c-.295812 1.577565-1.791405 2.634687-3.377187 2.387088-1.585881-.2475-2.688048-1.710225-2.489058-3.302838l.967131-7.736751v-3.579147c-1.623204-.252549-3.318282-.615879-5.169582-1.074843-1.592118-.394614-2.562813-2.005245-2.1681-3.597363.394713-1.592118 2.005344-2.562813 3.597363-2.1681 3.566079.88407 6.172947 1.302939 8.7021 1.313037 2.520144.010098 5.11533-.385407 8.644878-1.304424zM15.709901 2.17c-1.640232 0-2.97 1.329669-2.97 2.97 0 1.640331 1.329768 2.97 2.97 2.97 1.640331 0 2.97-1.329669 2.97-2.97 0-1.640331-1.329669-2.97-2.97-2.97zm-4.95 2.97c0-2.733786 2.216214-4.95 4.95-4.95 2.733786 0 4.95 2.216214 4.95 4.95 0 2.733786-2.216214 4.95-4.95 4.95-2.733786 0-4.95-2.216214-4.95-4.95z" />
</svg>