<svg xmlns="http://www.w3.org/2000/svg" viewBox="0 0 256 256">
  <path
    d="M123.307 24.339c-20.064 1.813-37.18 16.713-42.007 36.568L80.548 64l-20.967.007c-22.631.007-24.05.123-27.701 2.263-2.664 1.561-5.624 4.998-6.79 7.884l-.983 2.433v134.826l.99 2.452c1.382 3.423 4.586 6.794 8.101 8.525l2.837 1.397h183.93l2.837-1.397c3.515-1.731 6.719-5.102 8.101-8.525l.99-2.452V76.587l-.983-2.433c-1.166-2.886-4.126-6.323-6.79-7.884-3.65-2.14-5.073-2.256-27.661-2.263L175.531 64l-1.138-4.049c-1.639-5.833-3.419-9.841-6.331-14.261-4.4-6.679-11.812-13.248-18.942-16.787-7.295-3.622-17.085-5.352-25.813-4.564m11.431 16.42c10.411 2.064 20.003 10.569 23.552 20.884l.811 2.357H96.899l.811-2.357c2.792-8.116 8.766-14.71 16.868-18.621 5.776-2.789 13.268-3.63 20.16-2.263M79.865 93.12c.117 11.172.232 13.084.86 14.23.964 1.761 3.489 3.936 4.936 4.253.641.14 1.398.326 1.682.413 1.004.307 4.866-.98 5.957-1.985 2.54-2.339 2.68-3.23 2.691-17.124L96 80.213h64l.009 12.694c.011 13.894.151 14.785 2.691 17.124 1.091 1.005 4.953 2.292 5.957 1.985a28.995 28.995 0 0 1 1.682-.413c1.447-.317 3.972-2.492 4.936-4.253.628-1.146.743-3.058.86-14.23l.135-12.907H215.893v128H40.107v-128H79.73l.135 12.907" />
</svg>