<svg xmlns="http://www.w3.org/2000/svg" viewBox="0 0 256 256">
  <path
    d="M122.453 24.339C83.867 27.067 53.08 56.697 48.659 95.36c-.241 2.112-.443 7.776-.448 12.587-.033 29.724-3.446 48.9-11.562 64.959-4.315 8.538-4.707 12.465-1.821 18.233 1.742 3.483 3.976 5.61 7.786 7.415l2.826 1.339 21.179.126 21.179.125.293 2.861c1.747 17.024 12.839 30.708 28.592 35.273 12.615 3.656 26.183.972 36.315-7.183 8.586-6.912 13.744-16.627 14.912-28.09l.292-2.861 21.179-.125 21.179-.126 2.826-1.339c3.653-1.73 5.889-3.784 7.583-6.962 3.055-5.732 2.743-9.771-1.404-18.152-4.398-8.89-6.983-16.788-8.964-27.384-1.727-9.244-2.795-23.554-2.812-37.683-.014-12.24-1.066-19.699-4.079-28.907-8.909-27.23-32.725-48.551-60.15-53.85-4.199-.811-13.565-1.79-15.773-1.649-.47.031-2.87.198-5.334.372m14.089 16.382c28.183 3.752 50.886 26.845 54.556 55.492.241 1.878.548 9.174.682 16.214.345 17.993 1.233 27.607 3.647 39.466 2.191 10.759 6.094 22.183 10.019 29.325l1.471 2.675H49.083l1.471-2.675c3.925-7.142 7.828-18.566 10.019-29.325 2.437-11.971 3.312-21.541 3.649-39.893.257-13.981.589-17.945 1.968-23.467 2.802-11.221 8.225-20.931 16.29-29.168 14.236-14.538 33.918-21.326 54.062-18.644m15.183 162.178c-.394 3.851-1.882 7.691-4.282 11.054-5.826 8.166-15.743 11.722-25.631 9.193-9.344-2.389-16.695-10.902-17.578-20.352l-.251-2.687h48.028l-.286 2.792" />
</svg>