<svg xmlns="http://www.w3.org/2000/svg" viewBox="0 0 72 72">
  <path
    d="m63.8 51.7-3.5-6.9v-21c-1.5-12.3-12-21.59999-24.6-21.59999C23.1 2.20001 12.6 11.5 11.1 23.8v21l-3.5 6.9c-1 2-.9 4.3.3 6.2 1.2 1.9 3.2 3 5.4 3h11.2c.7 5.6 5.4 10 11.2 10 5.8 0 10.6-4.4 11.2-10h11.2c2.2 0 4.3-1.1 5.4-3 1.2-1.9 1.3-4.2.3-6.2Zm-28 14.4c-3.1 0-5.8-2.2-6.4-5.2h12.7c-.6 3-3.2 5.2-6.3 5.2Zm23.7-10.7c-.1.2-.5.7-1.3.7H13.4c-.8 0-1.2-.5-1.3-.7-.1-.2-.4-.8-.1-1.5l4-8V26.2c.3-10.8 9-19.29999 19.8-19.29999S55.3 15.4 55.6 26.2v19.7l4 8c.3.6 0 1.2-.1 1.5Z" />
</svg>