<svg xmlns="http://www.w3.org/2000/svg" viewBox="0 0 72 72">
  <path
    d="M59 64.7H12.7c-6.2 0-11.2-5-11.2-11.2V28.3c0-6.2 5-11.2 11.2-11.2h7.4c1.1-5 5.6-8.69998 10.9-8.69998h9.7c5.3 0 9.8 3.69998 10.9 8.69998H59c6.2 0 11.2 5 11.2 11.2v25.1c0 6.2-5 11.3-11.2 11.3ZM12.7 21.9c-3.6 0-6.4 2.9-6.4 6.4v25.1c0 3.6 2.9 6.4 6.4 6.4H59c3.6 0 6.4-2.9 6.4-6.4V28.3c0-3.6-2.9-6.4-6.4-6.4H47v-2.4c0-3.5-2.8-6.3-6.3-6.3H31c-3.5 0-6.3 2.8-6.3 6.3v2.4h-12Z" />
  <path
    d="M35.8 54.9c-8 0-14.5-6.5-14.5-14.5s6.5-14.5 14.5-14.5 14.5 6.5 14.5 14.5-6.5 14.5-14.5 14.5Zm0-24.2c-5.4 0-9.7 4.4-9.7 9.7 0 5.3 4.4 9.7 9.7 9.7 5.3 0 9.7-4.4 9.7-9.7 0-5.3-4.3-9.7-9.7-9.7Z" />
</svg>