<svg xmlns="http://www.w3.org/2000/svg" viewBox="0 0 256 256">
  <path
    d="M52.693 48.71c-3.566 1.968-5.179 5.346-4.391 9.195.405 1.98 1.436 3.061 34.401 36.068L116.686 128l-33.983 34.027c-33.24 33.282-33.993 34.072-34.412 36.117-.235 1.15-.365 2.302-.289 2.56.077.258.255.994.395 1.635.284 1.299 2.439 3.943 3.811 4.677 1.618.866 3.625 1.106 5.697.682 1.98-.405 3.061-1.436 36.068-34.401L128 139.314l34.027 33.983c33.007 32.965 34.088 33.996 36.068 34.401 2.072.424 4.079.184 5.697-.682 1.372-.734 3.527-3.378 3.811-4.677.14-.641.318-1.377.395-1.635.076-.258-.054-1.41-.289-2.56-.419-2.045-1.172-2.835-34.412-36.117L139.314 128l33.983-34.027c33.24-33.282 33.993-34.072 34.412-36.117.235-1.15.365-2.302.289-2.56-.077-.258-.255-.994-.395-1.635-.312-1.425-2.504-3.991-4.125-4.829-1.397-.723-4.928-.813-6.65-.171-.671.251-16.119 15.355-35.016 34.238l-33.815 33.79-33.598-33.557c-18.48-18.456-34.213-33.863-34.964-34.238-1.56-.777-5.473-.884-6.742-.184" />
</svg>