<svg xmlns="http://www.w3.org/2000/svg" viewBox="0 0 16 16">
  <path
    d="M7.293 1.041c-1.656.184-3.107.877-4.255 2.031-1.055 1.059-1.705 2.351-1.963 3.901-.07.422-.07 1.632 0 2.054.258 1.556.914 2.854 1.979 3.919s2.363 1.721 3.919 1.979c.422.07 1.632.07 2.054 0 1.559-.26 2.85-.912 3.918-1.98 1.07-1.069 1.741-2.403 1.98-3.932.069-.438.069-1.591 0-2.026A7 7 0 0 0 9.013 1.08c-.327-.052-1.392-.076-1.72-.039m1.563 1.028a5.97 5.97 0 0 1 4.518 3.278c.423.856.61 1.67.609 2.653a5.809 5.809 0 0 1-.668 2.773 5.995 5.995 0 0 1-7.942 2.614c-1.802-.882-3.009-2.54-3.308-4.547a7.15 7.15 0 0 1-.003-1.667c.105-.691.274-1.24.564-1.826a5.966 5.966 0 0 1 4.356-3.253 6.328 6.328 0 0 1 1.874-.025m.264 3.006L6.2 6.2 5.133 8.973c-.587 1.526-1.094 2.842-1.125 2.926-.052.135-.053.15-.013.135.385-.14 5.783-2.228 5.797-2.242.022-.022 2.268-5.848 2.253-5.844L9.12 5.075m1.173.646c0 .008-.284.753-.63 1.655-.37.962-.649 1.649-.674 1.662-.1.054-3.261 1.259-3.272 1.248-.006-.006.274-.755.622-1.662l.634-1.651 1.64-.631c.902-.348 1.649-.633 1.66-.634.011-.001.02.005.02.013m-2.552 1.87a.461.461 0 0 0-.221.41c0 .279.201.479.48.479.485 0 .667-.624.259-.889a.485.485 0 0 0-.518 0" />
</svg>