<svg xmlns="http://www.w3.org/2000/svg" viewBox="0 0 72 72">
  <path
    d="M36.4 3.39999C18 3.39999 3 18.4 3 36.8c0 18.4 15 33.4 33.4 33.4s33.4-15 33.4-33.4-15-33.40001-33.4-33.40001ZM36.4 65.4c-15.8 0-28.6-12.8-28.6-28.6S20.6 8.19999 36.4 8.19999 65 21 65 36.8 52.1 65.4 36.4 65.4Z" />
  <path
    d="M52.6 17.4 29 28.3c-.1 0-.1.1-.2.1s-.1.1-.2.1l-.3.3-.3.3c0 .1-.1.1-.1.2s-.1.1-.1.2L17 53c-.4.9-.2 2 .5 2.7.5.5 1.1.7 1.7.7.3 0 .7-.1 1-.2l23.6-10.9c.1 0 .1-.1.2-.1s.1-.1.2-.1l.3-.3.3-.3c0-.1.1-.1.1-.2s.1-.1.1-.2l10.9-23.6c.4-.9.2-2-.5-2.7-.8-.7-1.9-.8-2.8-.4ZM30.8 34.6l7.8 7.8-14.5 6.7 6.7-14.5ZM42 39l-7.8-7.8 14.5-6.7L42 39Z" />
</svg>