<svg xmlns="http://www.w3.org/2000/svg" viewBox="0 0 72 72">
  <path
    d="M55.3 1.59998H20.7c-4.9 0-8.9 4-8.9 8.90002v5.8H8.9c-1.3 0-2.4 1.1-2.4 2.4 0 1.3 1.1 2.4 2.4 2.4h2.9v12.7H8.9c-1.3 0-2.4 1.1-2.4 2.4 0 1.3 1.1 2.4 2.4 2.4h2.9v12.7H8.9c-1.3 0-2.4 1.1-2.4 2.4 0 1.3 1.1 2.4 2.4 2.4h2.9v5.4c0 4.9 4 8.9 8.9 8.9h34.5c4.9 0 8.9-4 8.9-8.9v-51c.1-4.90002-3.9-8.90002-8.8-8.90002ZM59.4 61.5c0 2.3-1.9 4.1-4.1 4.1H20.7c-2.3 0-4.1-1.9-4.1-4.1v-5.4h2.7c1.3 0 2.4-1.1 2.4-2.4 0-1.3-1.1-2.4-2.4-2.4h-2.7V38.6h2.7c1.3 0 2.4-1.1 2.4-2.4 0-1.3-1.1-2.4-2.4-2.4h-2.7V21.2h2.7c1.3 0 2.4-1.1 2.4-2.4 0-1.3-1.1-2.4-2.4-2.4h-2.7v-5.8c0-2.30002 1.9-4.10002 4.1-4.10002h34.5c2.3 0 4.1 1.9 4.1 4.10002v50.9h.1Z" />
  <path
    d="M45.3 33c1.2-1.5 1.9-3.3 1.9-5.3 0-4.6-3.8-8.4-8.4-8.4-4.6 0-8.4 3.8-8.4 8.4 0 2 .7 3.9 1.9 5.3-3.9 2.3-6.6 6.5-6.6 11.3v.3c.1 2.6 2.3 4.7 4.9 4.7H47c2.6 0 4.8-2.1 4.9-4.8v-.3c0-4.7-2.6-9-6.6-11.2Zm-10-5.4c0-2 1.6-3.6 3.6-3.6s3.6 1.6 3.6 3.6-1.6 3.6-3.6 3.6-3.6-1.6-3.6-3.6Zm11.8 16.9s0 .1 0 0l-16.4.1c-.1 0-.1 0-.1-.1v-.2c0-4.6 3.7-8.3 8.3-8.3 4.6 0 8.3 3.7 8.3 8.3l-.1.2Z" />
</svg>