<svg xmlns="http://www.w3.org/2000/svg" viewBox="0 0 72 72">
  <path
    d="M45.1 65.4H15.6c-.6 0-1.2-.5-1.2-1.2V7.40002c0-.6.5-1.2 1.2-1.2h29.6c1.3 0 2.4-1.1 2.4-2.4 0-1.3-1.1-2.4-2.4-2.4H15.6c-3.3 0-5.99999 2.7-5.99999 6V64.3c0 3.3 2.69999 6 5.99999 6h29.6c1.3 0 2.4-1.1 2.4-2.4 0-1.3-1.2-2.5-2.5-2.5Z" />
  <path
    d="M60.6 34.1 46.9 19c-.9-1-2.4-1.1-3.4-.2-1 .9-1.1 2.4-.2 3.4l10.2 11.2h-23c-1.3 0-2.4 1.1-2.4 2.4 0 1.3 1.1 2.4 2.4 2.4h22.9l-10 11.2c-.9 1-.8 2.5.2 3.4.5.4 1 .6 1.6.6.7 0 1.3-.3 1.8-.8l13.7-15.3c.7-.9.7-2.3-.1-3.2Z" />
</svg>