<svg xmlns="http://www.w3.org/2000/svg" viewBox="0 0 256 256">
  <path
    d="M44.525 32.444c-4.459.882-9.003 4.625-11.117 9.156l-1.195 2.56v167.68l1.194 2.56c1.567 3.36 4.854 6.66 8.148 8.183l2.605 1.204 30.507.12c33.544.133 32.649.195 35.183-2.45 1.144-1.194 2.5-5.021 2.166-6.114-.087-.284-.273-1.041-.413-1.682-.312-1.425-2.504-3.991-4.125-4.829-1.01-.523-5.711-.619-30.23-.619H48.213V48.242l28.907-.121c26.254-.11 29.028-.188 30.23-.846 1.761-.964 3.936-3.489 4.253-4.936.14-.641.326-1.398.413-1.682.307-1.004-.98-4.866-1.985-5.957-.56-.608-1.786-1.46-2.724-1.894-1.61-.743-3.387-.785-31.36-.75-16.31.021-30.449.195-31.422.388m126.355 46.23c-2.848 1.248-4.898 4.438-4.904 7.633-.006 2.792 1.263 4.306 15.893 18.964l14.576 14.604-47.342.116c-46.468.114-47.37.131-48.791.969-.797.469-2.045 1.591-2.773 2.493-1.193 1.475-1.326 1.931-1.326 4.547 0 2.601.138 3.08 1.305 4.547.718.902 2.15 2.072 3.184 2.6l1.879.96H196.452l-14.759 14.826c-15.948 16.02-16.086 16.199-15.553 20.086.645 4.71 4.95 7.616 9.94 6.711 1.443-.262 4.176-2.836 24.177-22.772 12.901-12.859 22.806-23.066 23.147-23.851.762-1.756.762-4.458 0-6.214-.769-1.77-44.863-45.762-46.472-46.364-1.624-.607-4.491-.538-6.052.145" />
</svg>