<svg xmlns="http://www.w3.org/2000/svg" viewBox="0 0 64 64">
  <path d="M16.3 34.7H40c1.6 0 2.7-1.1 2.7-2.7s-1.1-2.7-2.7-2.7H16.8l3.7-3.7c1.1-1.1 1.1-2.7 0-3.7-1.1-1.1-2.7-1.1-3.7 0l-7.5 7.5c-.8.7-1.3 1.8-1.3 2.9 0 1.1.5 2.1 1.3 2.9l7.5 7.5c.5.5 1.1.8 1.9.8s1.3-.3 1.9-.8c1.1-1.1 1.1-2.7 0-3.7l-4.3-4.3z"/>
  <path d="M50.7 0h-16c-2.9 0-5.3 2.4-5.3 5.3V16c0 1.6 1.1 2.7 2.7 2.7s2.7-1.1 2.7-2.7V5.3h16v53.3h-16V48c0-1.6-1.1-2.7-2.7-2.7s-2.7 1.1-2.7 2.7v10.7c0 2.9 2.4 5.3 5.3 5.3h16c2.9 0 5.3-2.4 5.3-5.3V5.3C56 2.4 53.6 0 50.7 0z"/>
</svg>
