<svg xmlns="http://www.w3.org/2000/svg" viewBox="0 0 72 72">
  <path
    d="M60.4699 33.49H60.41c-1.33-.03-2.3701-1.14-2.3401-2.46l.4401-17.12-16.49.11h-.0201c-1.32 0-2.39-1.06-2.4-2.38-.01-1.33 1.06-2.40999 2.38-2.41999l18.97-.12999c.6-.01 1.2701.24999 1.7301.71999.46.46999.6999 1.08999.6899 1.73999l-.5 19.6c-.04 1.3-1.1 2.34-2.4 2.34Z" />
  <path
    d="M32.5 41.99c-.62 0-1.23-.24-1.7-.71-.93-.94-.93-2.46.01-3.39L59.1801 9.70002c.94-.94 2.4599-.93 3.3899.01.93.93998.9301 2.45998-.0099 3.38998L34.19 41.29c-.46.46-1.08.7-1.69.7Z" />
  <path
    d="M44.05 63.47H19.68C13.24 63.47 8 58.23 8 51.79V27.42c0-6.44 5.24-11.68 11.68-11.68H35c1.33 0 2.4 1.07 2.4 2.4 0 1.33-1.08 2.4-2.4 2.4H19.68c-3.8 0-6.88 3.09-6.88 6.88v24.37c0 3.8 3.09 6.88 6.88 6.88h24.37c3.8 0 6.8801-3.09 6.8801-6.88v-14.7c0-1.33 1.0799-2.4 2.3999-2.4s2.4 1.07 2.4 2.4v14.7c0 6.44-5.24 11.68-11.68 11.68Z" />
</svg>