<svg xmlns="http://www.w3.org/2000/svg" viewBox="0 0 72 72">
  <path
    d="M35.5737 53.0309c-12.39 0-24.0799-5.64-32.98995-15.93-.78-.91-.77999-2.25.01001-3.15 8.96004-10.23 20.87994-15.89 33.56994-15.95 12.45-.08 24.05 5.3 32.78 15.07.78.88.82 2.19.08 3.11-8.6 10.65-20.22 16.63-32.74 16.85-.24-.01-.47 0-.71 0Zm-27.93001-17.5c7.93001 8.38 17.95001 12.88 28.55001 12.69 10.44-.18 20.22-4.95 27.75-13.48-7.57-7.73-17.2899-11.95-27.5799-11.95h-.1701c-10.64.05-20.7 4.56-28.55001 12.74Z" />
  <path
    d="M35.7737 46.4109c-6.01 0-10.8999-4.89-10.8999-10.9 0-6.01 4.8899-10.9 10.8999-10.9 6.01 0 10.9 4.89 10.9 10.9 0 6.01-4.89 10.9-10.9 10.9Zm0-17c-3.36 0-6.1 2.74-6.1 6.1 0 3.36 2.74 6.1 6.1 6.1 3.36 0 6.1001-2.74 6.1001-6.1 0-3.36-2.7301-6.1-6.1001-6.1Z" />
</svg>