<svg xmlns="http://www.w3.org/2000/svg" viewBox="0 0 32 32">
  <path d="M19 13h10.006C30.66 13 32 14.343 32 15.999v7.002C32 24.658 30.659 26 29.006 26H19v2.009C19 29.102 18.106 30 17.003 30H1.998C.891 30 .001 29.101.001 27.993V5.008c0-1.109.897-2.007 2.003-2.007h10.997l6 7v3zm-1 13H5.994C4.34 26 3 24.657 3 23.001v-7.002C3 14.342 4.341 13 5.994 13H18v-2h-4.002C12.895 11 12 10.113 12 8.994V4H1.996C1.446 4 1 4.455 1 4.995v23.009c0 .55.455.995 1 .995h15c.552 0 1-.445 1-.993v-2.007zM13 4.5v4.491c0 .557.451 1.009.997 1.009H17.7L13 4.5zM6.007 14C4.898 14 4 14.9 4 15.992v7.016C4 24.108 4.898 25 6.007 25h22.985c1.109 0 2.007-.9 2.007-1.992v-7.016c0-1.1-.898-1.992-2.007-1.992H6.007zM8 19.5 6 16h1l1.5 2.625L10 16h1l-2 3.5 2 3.5h-1l-1.5-2.625L7 23H6l2-3.5zm9 2.5v1h-5v-7h1v6h4zm3.005-6C18.898 16 18 16.888 18 18c0 1.105.888 2 2 2h.991c.557 0 1.009.444 1.009 1 0 .552-.443 1-.999 1h-1.002c-.552 0-.999-.456-.999-.996v-.011h-1v.006c0 1.105.894 2.001 2.005 2.001h.99C22.102 23 23 22.112 23 21c0-1.105-.888-2-2-2h-.991C19.452 19 19 18.556 19 18c0-.552.443-1 .999-1h1.002c.552 0 .999.453.999 1h1c0-1.105-.894-2-2.005-2h-.99zM26 19.5 24 16h1l1.5 2.625L28 16h1l-2 3.5 2 3.5h-1l-1.5-2.625L25 23h-1l2-3.5z"/>
</svg>
