<svg xmlns="http://www.w3.org/2000/svg" viewBox="0 0 32 32">
  <path d="M21 13v-3l-6-7H4.003C2.897 3 2 3.898 2 5.007v22.985c0 1.109.891 2.007 1.997 2.007h15.005c1.103 0 1.997-.898 1.997-1.991v-2.009h7.993c1.661 0 3.007-1.342 3.007-2.999v-7.002c0-1.656-1.336-2.999-3.007-2.999h-7.993zm-1 13v2.007c0 .548-.448.993-1 .993H4c-.545 0-1-.446-1-.995V4.996c0-.54.446-.995.996-.995H14v4.994c0 1.119.895 2.006 1.998 2.006H20v2h-7.993C10.346 13.001 9 14.343 9 16v7.002c0 1.656 1.336 2.999 3.007 2.999H20zM15 4.5l4.7 5.5h-3.703C15.451 10 15 9.548 15 8.991V4.5zM11.995 14h17.011c1.092 0 1.995.892 1.995 1.992v7.016c0 1.092-.893 1.992-1.995 1.992H11.995C10.903 25 10 24.108 10 23.008v-7.016C10 14.9 10.893 14 11.995 14zM27 20h-1.8l1.8-2.5V20zm0 1v2h1v-2h1v-1h-1v-4h-1l-3 4v1h3zm-12.5-2L13 16h-1v7h1v-5l1 2h1l1-2v5h1v-7h-1l-1.5 3zm3.5-1v-2h2.995c1.111 0 2.005.895 2.005 2 0 1.112-.898 2-2.005 2H19v3h-1v-5zm1-1v2h2.001c.552 0 .999-.444.999-1 0-.552-.443-1-.999-1H19z"/>
</svg>
