<svg xmlns="http://www.w3.org/2000/svg" viewBox="0 0 32 32">
  <path d="M19 13h10.006C30.66 13 32 14.343 32 15.999v7.002C32 24.658 30.659 26 29.006 26H19v2.009C19 29.102 18.106 30 17.003 30H1.998C.891 30 .001 29.101.001 27.993V5.008c0-1.109.897-2.007 2.003-2.007h10.997l6 7v3zm-1 13H5.994C4.34 26 3 24.657 3 23.001v-7.002C3 14.342 4.341 13 5.994 13H18v-2h-4.002C12.895 11 12 10.113 12 8.994V4H1.996C1.446 4 1 4.455 1 4.995v23.009c0 .55.455.995 1 .995h15c.552 0 1-.445 1-.993v-2.007zM13 4.5v4.491c0 .557.451 1.009.997 1.009H17.7L13 4.5zM6.007 14C4.898 14 4 14.9 4 15.992v7.016C4 24.108 4.898 25 6.007 25h22.985c1.109 0 2.007-.9 2.007-1.992v-7.016c0-1.1-.898-1.992-2.007-1.992H6.007zM6 16h2.995c1.111 0 2.005.898 2.005 2.006v2.988C11 22.113 10.102 23 8.995 23H6v-7zm1 1v5h2.001c.552 0 .999-.444.999-1v-3c0-.552-.443-1-.999-1H7zm7.005-1h.99c1.111 0 2.005.898 2.005 2.006v2.988C17 22.113 16.102 23 14.995 23h-.99C12.894 23 12 22.102 12 20.994v-2.988c0-1.119.898-2.006 2.005-2.006zm-.006 1c-.552 0-.999.444-.999 1v3c0 .552.443 1 .999 1h1.002c.552 0 .999-.444.999-1v-3c0-.552-.443-1-.999-1h-1.002zM23 21c-.003 1.117-.9 2-2.005 2h-.99C18.894 23 18 22.102 18 20.994v-2.988c0-1.119.898-2.006 2.005-2.006h.99c1.109 0 2.002.895 2.005 2h-1c0-.552-.443-1-.999-1h-1.002c-.552 0-.999.444-.999 1v3c0 .552.443 1 .999 1h1.002c.552 0 .999-.444.999-1h1zm3-1.5L24 16h1l1.5 2.625L28 16h1l-2 3.5 2 3.5h-1l-1.5-2.625L25 23h-1l2-3.5z"/>
</svg>
