<svg xmlns="http://www.w3.org/2000/svg" viewBox="0 0 32 32">
  <path d="M21 13v-3l-6-7H4.003C2.897 3 2 3.898 2 5.007v22.985c0 1.109.891 2.007 1.997 2.007h15.005c1.103 0 1.997-.898 1.997-1.991v-2.009h7.993c1.661 0 3.007-1.342 3.007-2.999v-7.002c0-1.656-1.336-2.999-3.007-2.999h-7.993zm-1 13v2.007c0 .548-.448.993-1 .993H4c-.545 0-1-.446-1-.995V4.996c0-.54.446-.995.996-.995H14v4.994c0 1.119.895 2.006 1.998 2.006H20v2h-7.993C10.346 13.001 9 14.343 9 16v7.002c0 1.656 1.336 2.999 3.007 2.999H20zM15 4.5l4.7 5.5h-3.703C15.451 10 15 9.548 15 8.991V4.5zM11.995 14h17.011c1.092 0 1.995.892 1.995 1.992v7.016c0 1.092-.893 1.992-1.995 1.992H11.995C10.903 25 10 24.108 10 23.008v-7.016C10 14.9 10.893 14 11.995 14zM17 20v2h-2c-.556 0-1-.448-1-1v-3c0-.556.448-1 1-1h3v-1h-2.995C13.898 16 13 16.887 13 18.006v2.988c0 1.108.894 2.006 2.005 2.006H18v-4h-3v1h2zm3-3v5h-1v1h3v-1h-1v-5h1v-1h-3v1h1zm4 2v-2h4v-1h-5v7h1v-3h3v-1h-3z"/>
</svg>
