<svg xmlns="http://www.w3.org/2000/svg" viewBox="0 0 72 72">
  <path
    d="M61.7058 15.7501h-6.175c-1.2713 0-2.2942-1.0228-2.2942-2.2941 0-1.2714 1.0324-2.2942 2.2942-2.2942h6.175c1.2714 0 2.2942 1.0228 2.2942 2.2942 0 1.2713-1.0228 2.2941-2.2942 2.2941ZM43.3527 15.7501H9.29417C8.02283 15.7501 7 14.7273 7 13.456c0-1.2714 1.03239-2.2942 2.29417-2.2942H43.3527c1.2713 0 2.2942 1.0228 2.2942 2.2942 0 1.2713-1.0229 2.2941-2.2942 2.2941ZM61.7058 37.8122H26.3282c-1.2713 0-2.2941-1.0228-2.2941-2.2942 0-1.2713 1.0323-2.2941 2.2941-2.2941h35.3776c1.2714 0 2.2942 1.0228 2.2942 2.2941 0 1.2714-1.0228 2.2942-2.2942 2.2942ZM14.7236 37.8122H9.30369c-1.27134 0-2.29417-1.0228-2.29417-2.2942 0-1.2713 1.03239-2.2941 2.29417-2.2941h5.41991c1.2713 0 2.2942 1.0228 2.2942 2.2941 0 1.2714-1.0229 2.2942-2.2942 2.2942ZM61.7058 61.2029H41.1637c-1.2714 0-2.2941-1.0228-2.2941-2.2941 0-1.2714 1.0323-2.2942 2.2941-2.2942h20.5421c1.2714 0 2.2942 1.0228 2.2942 2.2942 0 1.2713-1.0228 2.2941-2.2942 2.2941ZM29.4827 61.2029H9.29417C8.02283 61.2029 7 60.1801 7 58.9088c0-1.2714 1.03239-2.2942 2.29417-2.2942H29.4827c1.2713 0 2.2941 1.0228 2.2941 2.2942 0 1.2713-1.0228 2.2941-2.2941 2.2941Z" />
  <path
    d="M49.6712 20.7399c-4.0626 0-7.3699-3.3074-7.3699-7.37C42.3013 9.30739 45.6086 6 49.6712 6c4.0625 0 7.3699 3.30739 7.3699 7.3699 0 4.0626-3.3169 7.37-7.3699 7.37Zm0-10.142c-1.5295 0-2.7817 1.2426-2.7817 2.7816 0 1.5294 1.2427 2.7817 2.7817 2.7817s2.7817-1.2427 2.7817-2.7817c-.0096-1.5294-1.2523-2.7816-2.7817-2.7816ZM35.5049 66.2692c-4.0626 0-7.37-3.3074-7.37-7.37 0-4.0625 3.3074-7.3699 7.37-7.3699 4.0625 0 7.3699 3.3074 7.3699 7.3699 0 4.0626-3.3074 7.37-7.3699 7.37Zm0-10.1421c-1.5295 0-2.7817 1.2427-2.7817 2.7817 0 1.5294 1.2427 2.7816 2.7817 2.7816 1.5294 0 2.7815-1.2426 2.7815-2.7816-.0095-1.539-1.2521-2.7817-2.7815-2.7817ZM20.2201 42.5917c-4.0625 0-7.3699-3.3074-7.3699-7.37 0-4.0625 3.3074-7.3699 7.3699-7.3699 4.0626 0 7.37 3.3074 7.37 7.3699 0 4.0626-3.3074 7.37-7.37 7.37Zm0-10.1421c-1.5294 0-2.7816 1.2427-2.7816 2.7817 0 1.5294 1.2426 2.7816 2.7816 2.7816 1.539 0 2.7817-1.2426 2.7817-2.7816 0-1.5294-1.2427-2.7817-2.7817-2.7817Z" />
</svg>