<svg xmlns="http://www.w3.org/2000/svg" viewBox="0 0 72 72">
  <path
    d="M69.5 32.1c-.4-.6-1.2-1-2-1h-7.9v-3.4c0-3.6-2.9-6.5-6.5-6.5H29.6l-1.5-5.7c-.6-2.4-2.8-4.1-5.3-4.1H9.39999c-3 0-5.5 2.5-5.5 5.5v42.5c0 .7.4 1.5.8 2.1.8 1.1 2 1.7 3.3 1.7H53.7c3.1 0 5.8-1.9 6.9-4.8l9.1-24.2c.4-.6.3-1.5-.2-2.1ZM9.39999 16.2H22.8c.3 0 .6.2.7.5l2 7.5c.3 1.1 1.2 1.8 2.3 1.8h25.4c.9 0 1.7.7 1.7 1.7v3.4H16.7c-1 0-1.9.6-2.2 1.5L8.69999 46.7V16.9c0-.4.3-.7.7-.7ZM56.2 56.8c-.4 1-1.3 1.7-2.4 1.7H9.19999L18.3 35.9h45.8l-7.9 20.9Z" />
</svg>