<svg xmlns="http://www.w3.org/2000/svg" viewBox="0 0 256.001 256.001">
  <path
    d="M88.96 23.072c-8.844 2.981-22.133 10.495-30.554 17.276-5.022 4.045-6.902 6.495-7.832 10.212-.176.704-.29 7.262-.253 14.573l.067 13.292-2.132 3.718-2.131 3.717-10.342 5.745c-5.688 3.159-11.164 6.31-12.17 7.002-2.296 1.579-4.322 4.492-5.292 7.61-2.96 9.509-2.952 34.083.014 43.612 1.002 3.22 3.342 6.342 6.103 8.146 1.226.801 6.645 3.904 12.042 6.897l9.814 5.44 2.047 3.639 2.047 3.638-.067 13.286c-.037 7.307.077 13.862.254 14.566.601 2.401 2.389 5.421 4.319 7.296 9.642 9.371 32.553 21.504 40.608 21.504 3.798 0 6.073-1.024 17.594-7.919l10.294-6.161h9.221l10.294 6.161c11.617 6.952 13.78 7.919 17.718 7.919 7.473 0 26.574-9.769 38.171-19.522 3.523-2.963 4.904-4.729 6.035-7.716.87-2.298.913-3.081.867-16.069l-.049-13.653 1.909-3.156c1.05-1.736 1.963-3.309 2.03-3.496.067-.187 5.018-3.062 11.002-6.388 5.984-3.327 11.58-6.602 12.436-7.279 2.024-1.6 3.966-4.687 4.799-7.628 2.829-9.985 2.742-33.846-.157-43.162-.984-3.16-3.33-6.334-5.902-7.985-1.12-.719-6.502-3.785-11.961-6.814l-9.924-5.508-2.133-3.72-2.133-3.72.067-13.292c.037-7.311-.077-13.869-.254-14.573-.598-2.387-2.385-5.417-4.283-7.261-8.982-8.73-31.299-20.858-39.455-21.441-4.435-.318-6.431.517-18.516 7.744l-11.007 6.581-4.109.007-4.109.006-10.809-6.442c-5.946-3.544-11.802-6.786-13.014-7.204-3.32-1.148-6.675-.991-11.164.522m17.854 21.606c6.138 3.687 11.935 6.903 12.882 7.146 1.047.269 4.822.359 9.631.23l7.909-.214 11.561-6.933c6.359-3.814 11.767-6.934 12.017-6.934.887 0 7.985 3.099 11.987 5.232 4.594 2.449 11.028 6.612 14.506 9.387l2.347 1.871v28.951l2.408 3.84c1.324 2.112 2.985 4.992 3.691 6.4.705 1.408 1.752 2.997 2.326 3.532.574.535 6.305 3.902 12.736 7.483l11.693 6.51.567 3.824c.747 5.035.747 20.955 0 26.011l-.567 3.84-11.307 6.283c-6.219 3.456-11.933 6.778-12.699 7.382-.765.605-1.986 2.289-2.712 3.744-.726 1.454-2.404 4.372-3.728 6.484l-2.408 3.84v28.951l-2.347 1.872c-6.598 5.267-17.965 11.764-24.412 13.955l-2.407.819-11.657-7.012-11.657-7.011h-18.347l-11.669 7.018-11.669 7.019-2.197-.769c-6.749-2.36-16.266-7.691-23.588-13.212l-3.471-2.616.057-14.507.057-14.507-2.408-3.84c-1.324-2.112-3.002-5.03-3.728-6.484-.726-1.455-1.947-3.139-2.712-3.744-.766-.604-6.48-3.926-12.699-7.382l-11.307-6.283-.566-3.84c-.752-5.098-.756-21.005-.006-26.011l.572-3.824 11.693-6.51c6.431-3.581 12.162-6.948 12.736-7.483.574-.535 1.621-2.124 2.326-3.532.706-1.408 2.367-4.288 3.691-6.4l2.408-3.84v-28.95l2.347-1.872c3.18-2.537 9.715-6.821 13.866-9.09 3.713-2.029 11.599-5.507 12.52-5.52.316-.005 5.596 3.008 11.734 6.696m12.178 28.1c-11.202 1.752-22.129 7.396-30.474 15.74-7.904 7.905-13.041 17.367-15.419 28.404-1.095 5.08-1.095 17.077 0 22.157 2.378 11.037 7.515 20.499 15.419 28.404 7.905 7.904 17.367 13.041 28.404 15.419 5.08 1.095 17.077 1.095 22.157 0 10.984-2.366 20.537-7.552 28.404-15.419 7.867-7.867 13.053-17.42 15.419-28.404 1.095-5.08 1.095-17.077 0-22.157-3.663-17.002-14.731-31.362-30.086-39.033-9.957-4.974-22.536-6.875-33.824-5.111m17.257 16.227c9.708 1.845 19.242 8.222 24.789 16.58 2.142 3.226 4.712 8.802 5.539 12.016 1.627 6.323 1.632 14.395.012 20.799-.914 3.609-4.379 10.588-6.917 13.931-5.503 7.247-13.293 12.254-22.711 14.6-2.724.678-4.956.903-8.961.903-15.733 0-28.942-8.308-35.856-22.553-3.329-6.86-4.564-13.749-3.796-21.173.568-5.487 1.419-8.49 3.796-13.388 4.349-8.959 10.229-14.732 19.348-18.991 7.692-3.593 15.604-4.463 24.757-2.724" />
</svg>