<svg xmlns="http://www.w3.org/2000/svg" viewBox="0 0 72 72">
  <path
    d="M26.5 68.4c-1 0-2-.3-2.9-.8L15.5 63c-2.3-1.3-3.4-3.8-2.9-6.4l1.2-6c-.4-.6-.9-1.4-1.2-2.1l-5.8-1.7c-2.5-.7-4.2-3-4.3-5.6L2.2 32c-.1-2.6 1.5-4.9 4-5.8l5.8-2c.4-.9.9-1.8 1.5-2.6l-1.3-6c-.6-2.5.6-5.1 2.8-6.4l8-4.7c2.2-1.3 5-1 7 .7l4.6 4.1c.8 0 1.7-.1 2.5 0l4.5-4.2c1.9-1.8 4.7-2.1 7-.8l8.1 4.6c2.3 1.3 3.4 3.8 2.9 6.4l-1.2 6c.4.6.9 1.4 1.2 2.1l5.8 1.7c2.5.7 4.2 3 4.3 5.6l.2 9.3c.1 2.6-1.5 4.9-4 5.8l-5.6 2c-.5 1-1 1.9-1.6 2.8l1.3 5.8c.6 2.5-.6 5.1-2.8 6.4l-8 4.7c-2.2 1.3-5 1-7-.7l-4.5-4c-.9.1-1.8.1-2.7 0l-4.4 4.1c-1.2.9-2.6 1.5-4.1 1.5ZM26 8.5c-.2 0-.4.1-.6.2l-8 4.7c-.4.3-.7.8-.5 1.3l1.6 7c.1.7 0 1.3-.4 1.9-.8 1.1-1.5 2.4-2 3.7-.3.6-.8 1.1-1.4 1.3L8 30.9c-.7.1-1 .5-1 1l.2 9.3c0 .5.3.9.8 1.1l6.8 2c.6.2 1.2.6 1.5 1.2.2.4 1.5 2.7 1.9 3.2.4.5.5 1.2.4 1.9l-1.4 6.9c-.1.5.1 1 .6 1.2l8.1 4.6c.4.2 1 .2 1.4-.2l5.1-4.8c.5-.5 1.2-.7 1.8-.6 1.3.1 2.7.1 4 0 .7-.1 1.3.1 1.8.6l5.2 4.6c.4.3.9.4 1.4.1l8-4.7c.4-.3.7-.8.5-1.3l-1.5-6.8c-.1-.7 0-1.3.4-1.9.8-1.2 1.6-2.5 2.1-3.8.3-.6.8-1.1 1.4-1.3l6.6-2.3c.5-.2.8-.6.8-1.1l-.2-9.3c0-.5-.3-.9-.8-1.1l-6.8-2c-.6-.2-1.2-.6-1.5-1.2-.2-.4-1.6-2.7-1.9-3.2-.4-.5-.5-1.2-.4-1.9l1.4-6.9c.1-.5-.1-1-.6-1.2L46 8.4c-.4-.2-1-.2-1.4.2l-5.2 4.8c-.5.5-1.1.7-1.8.6-1.3-.1-2.5-.1-3.8 0-.7.1-1.3-.2-1.8-.6l-5.3-4.7c-.2-.1-.4-.2-.7-.2Zm10.1 42.3c-8.1 0-14.8-6.6-14.8-14.8 0-8.2 6.6-14.8 14.8-14.8 8.2 0 14.7 6.7 14.7 14.8 0 8.1-6.6 14.8-14.7 14.8Zm0-24.8c-5.5 0-10 4.5-10 10s4.5 10 10 10 10-4.5 10-10-4.5-10-10-10Z" />
</svg>