<svg xmlns="http://www.w3.org/2000/svg" viewBox="0 0 72 72">
  <path
    d="M36 2.09998C17 2.09998 1.60001 17.5 1.60001 36.5S17 70.9 36 70.9s34.4-15.4 34.4-34.4S55 2.09998 36 2.09998ZM65.5 34.1H52.3c-.3-10.7-2.8-19.8-6.5-25.60002C56.6 12.3 64.6 22.2 65.5 34.1ZM36 66.1c-5.2 0-10.9-11.1-11.4-27.2h22.9C46.9 55 41.2 66.1 36 66.1Zm-11.4-32C25.1 17.9 30.8 6.89998 36 6.89998S46.9 18 47.4 34.1H24.6Zm1.7-25.60002C22.6 14.2 20.1 23.3 19.8 34.1H6.50001C7.50001 22.2 15.5 12.3 26.3 8.49998ZM6.50001 38.9H19.8c.3 10.7 2.8 19.8 6.5 25.6C15.5 60.6 7.50001 50.7 6.50001 38.9ZM45.7 64.4c3.7-5.7 6.2-14.8 6.5-25.6h13.3c-.9 11.9-8.9 21.8-19.8 25.6Z" />
</svg>