<svg xmlns="http://www.w3.org/2000/svg" viewBox="0 0 256 256">
  <path
    d="M120.747 24.32c-36.774 2.49-69.769 24.672-85.996 57.813-4.911 10.029-8.131 20.412-9.858 31.787-1.031 6.787-1.031 21.373 0 28.16 4.764 31.37 21.891 57.697 48.353 74.329 11.472 7.21 26.044 12.476 40.674 14.698 6.787 1.031 21.373 1.031 28.16 0 22.397-3.401 41.936-12.867 57.655-27.929 17.075-16.362 27.729-37.111 31.372-61.098 1.031-6.787 1.031-21.373 0-28.16-4.729-31.139-21.768-57.479-47.891-74.037-8.792-5.573-22.599-11.233-32.603-13.367-9.311-1.986-20.649-2.82-29.866-2.196m12.051 19.574c10.895 5.274 21.151 27.84 25.039 55.093 1.05 7.357 1.735 14.56 1.736 18.24v2.666H96.295l.277-5.44c1.735-34.16 14.196-65.928 27.913-71.163 2.205-.842 5.878-.575 8.313.604m-34.4 3.146c-9.45 14.788-16.536 41.392-18.012 67.627l-.294 5.226H40.533l.002-.96c.003-1.928 1.337-9.185 2.528-13.76 5.493-21.09 19.749-40.209 38.87-52.131 4.7-2.93 15.684-8.125 17.368-8.214.295-.016-.105.962-.903 2.212m62.271-.723c28.654 11.552 49.265 37.287 54.142 67.603.359 2.229.653 4.485.654 5.013l.002.96h-39.559l-.294-5.226c-1.473-26.179-8.582-52.871-18.012-67.627-.787-1.232-1.266-2.24-1.064-2.24.203 0 2.061.683 4.131 1.517m-80.283 95.016c1.476 26.235 8.562 52.839 18.012 67.627.787 1.232 1.247 2.24 1.021 2.24-.766 0-6.814-2.542-10.747-4.517-25.294-12.704-43.011-36.809-47.483-64.603-.359-2.229-.653-4.485-.654-5.013l-.002-.96h39.559l.294 5.226m79.187-2.56c-.001 3.68-.686 10.883-1.736 18.24-3.938 27.599-14.202 49.958-25.355 55.234-7.757 3.67-16.113-2.548-23.481-17.474-6.749-13.671-11.44-33.76-12.429-53.226l-.277-5.44h63.278v2.666m55.892-1.706c-.001.528-.295 2.784-.654 5.013-4.469 27.779-22.202 51.906-47.483 64.603-3.933 1.975-9.981 4.517-10.747 4.517-.226 0 .234-1.008 1.021-2.24 9.398-14.704 16.528-41.492 18-67.627l.294-5.226h39.571l-.002.96" />
</svg>