<svg xmlns="http://www.w3.org/2000/svg" viewBox="0 0 72 72">
  <path
    d="M61 16.6H10.3c-3.6 0-6.5 2.9-6.5 6.5 0 2.9 1.9 5.3 4.5 6.2C10 38.6 15.6 46.1 23.2 50l-6.9 17.3c-.5 1.2.1 2.6 1.3 3.1.3.1.6.2.9.2 1 0 1.9-.6 2.2-1.5l3.6-8.9h22.8l3.4 8.9c.4 1 1.3 1.5 2.2 1.5.3 0 .6 0 .8-.2 1.2-.5 1.9-1.9 1.4-3.1l-6.6-17.5c7.5-4 13-11.4 14.6-20.6 2.6-.8 4.5-3.3 4.5-6.2.1-3.5-2.8-6.4-6.4-6.4ZM45.3 55.4h-19l1.4-3.6c2.5.8 5.2 1.2 8 1.2 2.9 0 5.7-.4 8.3-1.3l1.3 3.7ZM61 24.8h-.2c-1.2 0-2.2.9-2.4 2.1C57 39.4 47.6 48.1 35.7 48.1c-12 0-21.3-8.7-22.8-21.2-.1-1.2-1.2-2.1-2.4-2.1h-.2c-.9 0-1.7-.8-1.7-1.7 0-.9.7-1.7 1.7-1.7H61c.9 0 1.7.7 1.7 1.7 0 .9-.8 1.7-1.7 1.7ZM36.2 15c1.3 0 2.4-1.1 2.4-2.4V5.19999c0-1.3-1.1-2.4-2.4-2.4-1.3 0-2.4 1.1-2.4 2.4V12.7c0 1.3 1.1 2.3 2.4 2.3ZM25.5 15c1.3 0 2.4-1.1 2.4-2.4V8.4C27.9 7 26.8 6 25.5 6c-1.3 0-2.4 1-2.4 2.4v4.3c0 1.3 1.1 2.3 2.4 2.3ZM45.8 15c1.3 0 2.4-1.1 2.4-2.4V8.4C48.2 7 47.1 6 45.8 6c-1.3 0-2.4 1-2.4 2.4v4.3c0 1.3 1.1 2.3 2.4 2.3Z" />
</svg>