<svg xmlns="http://www.w3.org/2000/svg" viewBox="0 0 80 80">
  <path
    d="M8 24v4h3.077c.708 10.333 6.849 19.192 15.585 23.738L18.14 73.264l3.718 1.472L26.901 62H53.1l1.874 4.735A5.96 5.96 0 0 0 54 70c0 3.309 2.691 6 6 6s6-2.691 6-6-2.691-6-6-6c-.594 0-1.166.09-1.708.251l-4.954-12.513C62.074 47.192 68.215 38.333 68.923 28H72v-4H8zm54 46c0 1.103-.897 2-2 2s-2-.897-2-2 .897-2 2-2 2 .897 2 2zM51.516 58H28.484l1.847-4.664C33.357 54.41 36.61 55 40 55s6.643-.59 9.67-1.664L51.515 58zM64.92 28C63.898 40.854 53.11 51 40 51S16.102 40.854 15.08 28h49.84zM27 10h4v9h-4zM38 6h4v9h-4zM49 10h4v9h-4z" />
</svg>