<svg xmlns="http://www.w3.org/2000/svg" viewBox="0 0 72 72">
  <path
    d="M35.995 61.7888c-.6 0-1.1901-.22-1.6601-.66l-21.1399-20.15c-6.91997-6.92-6.92001-19.44-.04-26.31 6.01-6.00999 15.8099-6.18999 23.0799-.7 7.3-5.17999 16.71-4.84999 22.6 1.04 6.53 6.53 8.62 17.65 0 26.27l-21.1999 19.86c-.46.44-1.05.65-1.64.65Zm-11.4201-47c-2.88 0-5.7399.98-8.0199 3.27-4.92 4.92-4.92 14.57 0 19.48l19.46 18.54 19.49-18.26c6.34-6.34 4.78-14.59-.06-19.43-5.17-5.17-12.97-3.62-17.69.47-.92.8-2.3.78-3.2-.05-2.67-2.46-6.3501-4.02-9.9801-4.02Z" />
</svg>