<svg xmlns="http://www.w3.org/2000/svg" viewBox="0 0 24 24">
  <path
    d="M12 2.25c-5.381 0-9.75 4.369-9.75 9.75s4.369 9.75 9.75 9.75 9.75-4.369 9.75-9.75S17.381 2.25 12 2.25Zm0 1.5c4.553 0 8.25 3.697 8.25 8.25s-3.697 8.25-8.25 8.25S3.75 16.553 3.75 12 7.447 3.75 12 3.75Z" />
  <path d="M11.25 11.4998v4c0 .414.336.75.75.75s.75-.336.75-.75v-4c0-.414-.336-.75-.75-.75s-.75.336-.75.75Z" />
  <path
    d="M12 9.50024c.4142 0 .75-.33578.75-.75 0-.41421-.3358-.75-.75-.75s-.75.33579-.75.75c0 .41422.3358.75.75.75Z" />
</svg>