<svg xmlns="http://www.w3.org/2000/svg" viewBox="0 0 72 72">
  <path
    d="M36.5 20.6c-5.3 0-9.5-4.3-9.5-9.5 0-5.29999 4.3-9.49999 9.5-9.49999S46 5.80001 46 11.1c0 5.2-4.3 9.5-9.5 9.5Zm0-14.29999c-2.6 0-4.7 2.1-4.7 4.69999 0 2.6 2.1 4.7 4.7 4.7s4.7-2.1 4.7-4.7c0-2.59999-2.1-4.69999-4.7-4.69999ZM36.5 70.3c-5.2 0-9.4-4.2-9.4-9.4v-28c0-5.2 4.2-9.4 9.4-9.4s9.4 4.2 9.4 9.4V61c0 5.1-4.2 9.3-9.4 9.3Zm0-42.1c-2.5 0-4.6 2.1-4.6 4.6v28.1c0 2.5 2.1 4.6 4.6 4.6 2.5 0 4.6-2.1 4.6-4.6v-28c0-2.6-2.1-4.7-4.6-4.7Z" />
</svg>