<svg xmlns="http://www.w3.org/2000/svg" viewBox="0 0 64 64">
  <path d="M63.8 18.8c-.2-3.4-.7-5.7-1.5-7.8-.8-2.1-1.9-3.9-3.7-5.7S55.1 2.5 53 1.7C51 .9 48.6.4 45.2.2 41.8 0 40.7 0 32 0s-9.8 0-13.2.2c-3.4.2-5.7.7-7.8 1.5-2.1.8-3.9 1.9-5.6 3.7S2.5 8.9 1.7 11C.9 13 .4 15.4.2 18.8 0 22.2 0 23.3 0 32s0 9.8.2 13.2c.2 3.4.7 5.7 1.5 7.8.8 2.1 1.9 3.9 3.7 5.7 1.8 1.8 3.6 2.9 5.7 3.7 2 .8 4.4 1.3 7.8 1.5 3.3.1 4.4.1 13.1.1s9.8 0 13.2-.2c3.4-.2 5.7-.7 7.8-1.5 2.1-.8 3.9-1.9 5.7-3.7 1.8-1.8 2.9-3.6 3.7-5.7.8-2 1.3-4.4 1.5-7.8.1-3.3.1-4.4.1-13.1s0-9.8-.2-13.2zM58 44.9c-.1 3.1-.7 4.8-1.1 5.9-.6 1.5-1.3 2.6-2.4 3.7-1.1 1.1-2.2 1.8-3.7 2.4-1.1.4-2.8 1-5.9 1.1-3.4.2-4.4.2-12.9.2s-9.6 0-12.9-.2c-3.1-.1-4.8-.7-5.9-1.1-1.5-.6-2.6-1.3-3.7-2.4-1.1-1.1-1.8-2.2-2.4-3.7-.4-1.1-1-2.8-1.1-5.9-.2-3.3-.2-4.3-.2-12.9s0-9.6.2-12.9c.1-3.1.7-4.8 1.1-5.9.6-1.5 1.3-2.6 2.4-3.7 1.1-1.1 2.2-1.8 3.7-2.4 1.1-.4 2.8-1 5.9-1.1 3.4-.2 4.4-.2 12.9-.2s9.6 0 12.9.2c3.1.1 4.8.7 5.9 1.1 1.5.6 2.6 1.3 3.7 2.4 1.1 1.1 1.8 2.2 2.4 3.7.4 1.1 1 2.8 1.1 5.9.2 3.4.2 4.4.2 12.9s0 9.6-.2 12.9z"/>
  <path d="M32 15.6c-9.1 0-16.4 7.4-16.4 16.4 0 9.1 7.4 16.4 16.4 16.4S48.4 41.1 48.4 32 41.1 15.6 32 15.6zm0 27.1c-5.9 0-10.7-4.8-10.7-10.7S26.1 21.3 32 21.3 42.7 26.1 42.7 32 37.9 42.7 32 42.7z"/>
  <circle cx="49.1" cy="14.9" r="3.8"/>
</svg>
