<svg xmlns="http://www.w3.org/2000/svg" viewBox="0 0 72 72">
  <path
    d="M65.9 55.4 63 52.5c-2.5-2.5-6.4-2.9-9.4-1.1l-4.4-4.3C62.6 32.7 66.7 13.9 67.7 8.3c.2-1.2-.2-2.3-1-3.2-.8-.8-2-1.2-3.2-1-5.6 1-24.4 5.1-38.9 18.4l-4-4c1.9-3 1.6-7-1-9.6L16.7 6c-1.4-1.3-3.3-2-5.3-2s-4 .7-5.4 2.2l-1 1c-1.4 1.4-2.2 3.4-2.2 5.4 0 2 .8 4 2.2 5.4l2.9 2.9c1.4 1.4 3.4 2.2 5.4 2.2 1.4 0 2.8-.4 4-1.1l4.1 4C8 40.4 3.9 59.1 3 64.7c-.2 1.2.2 2.3 1 3.2.7.7 1.6 1.1 2.5 1.1.2 0 .4 0 .6-.1 5.6-1 24.4-5.1 38.9-18.4l4.3 4.3c-.8 1.2-1.2 2.7-1.2 4.2 0 2 .8 4 2.2 5.4l2.9 2.9c1.4 1.4 3.4 2.2 5.4 2.2 2 0 4-.8 5.4-2.2l1-1c2.9-3.1 2.9-8-.1-10.9ZM62.6 9.2c-1.3 6.7-5.5 22.3-16.7 34.5l-2.6-2.6 2.5-2.5c1.7-1.7 2.6-3.9 2.6-6.3s-.9-4.6-2.6-6.3c-1.7-1.7-3.9-2.6-6.3-2.6s-4.6.9-6.3 2.6l-2.5 2.5-2.6-2.5C40.3 14.8 55.9 10.6 62.6 9.2ZM30.7 35.3l5.8 5.8-2.5 2.5c-1.6 1.6-4.2 1.6-5.8 0-1.6-1.6-1.6-4.2 0-5.8l2.5-2.5Zm3.4-3.4 2.5-2.5c.8-.8 1.8-1.2 2.9-1.2 1.1 0 2.1.4 2.9 1.2.8.8 1.2 1.8 1.2 2.9 0 1.1-.4 2.1-1.2 2.9l-2.5 2.5-5.8-5.8ZM11.2 17.4l-2.9-2.9c-.5-.5-.8-1.2-.8-2s.3-1.5.8-2l1-1c.5-.5 1.2-.8 2-.8s1.5.3 2 .8l2.9 2.9c1.1 1.1 1.1 2.9 0 4l-1 1c-1 1.1-2.9 1.1-4 0ZM8 63.8c1.3-6.7 5.5-22.3 16.7-34.5l2.6 2.6-2.5 2.5c-3.5 3.5-3.5 9.1 0 12.6 1.7 1.7 4 2.6 6.3 2.6s4.6-.9 6.3-2.6l2.5-2.5 2.6 2.6C30.4 58.3 14.7 62.5 8 63.8Zm54.5-1-1 1c-1.1 1.1-2.9 1.1-4 0l-2.9-2.9c-.5-.5-.8-1.2-.8-2s.3-1.5.8-2l1-1c.6-.6 1.3-.8 2-.8s1.5.3 2 .8l2.9 2.9c1.1 1.1 1.1 2.8 0 4Z" />
</svg>