<svg xmlns="http://www.w3.org/2000/svg" viewBox="0 0 512.019 512.019">
  <path d="M496.813 423.265L475.6 402.051c-16.631-16.629-41.81-19.607-61.514-8.957l-52.099-52.099c36.053-37.301 66.324-78.919 90.229-124.122 32.145-60.784 52.225-127.162 59.681-197.289.479-4.506-1.105-8.988-4.31-12.192l-2.99-2.99c-3.204-3.205-7.684-4.785-12.192-4.31C422.278 7.549 355.9 27.629 295.116 59.774c-45.202 23.905-86.82 54.175-124.122 90.228l-52.016-52.016c10.555-19.683 7.547-44.778-9.04-61.367L88.725 15.407C78.932 5.614 65.874.221 51.955.221c-13.918 0-26.977 5.393-36.769 15.186C5.393 25.199 0 38.257 0 52.176c0 13.918 5.393 26.977 15.186 36.769l21.213 21.214c10.137 10.137 23.453 15.205 36.769 15.205 8.473 0 16.943-2.061 24.597-6.166l52.217 52.217c-1.68 1.804-3.353 3.617-5.013 5.447-40.805 44.976-74.247 95.975-99.396 151.583C21.25 382.228 5.951 437.389.102 492.396c-.479 4.506 1.105 8.988 4.31 12.192l2.99 2.99c2.828 2.828 6.649 4.394 10.605 4.394.527 0 1.057-.028 1.587-.084 55.007-5.849 110.167-21.147 163.95-45.471 55.607-25.149 106.607-58.59 151.583-99.396 1.83-1.66 3.642-3.333 5.447-5.013l52.365 52.365c-10.459 19.661-7.423 44.672 9.123 61.218l21.214 21.214c10.137 10.137 23.453 15.206 36.769 15.206s26.632-5.069 36.77-15.206c20.273-20.276 20.273-53.265-.002-73.54zm-16.6-391.489c-15.866 117.716-67.957 214.881-138.826 288.62l-30.349-30.349 28.4-28.4c11.862-11.862 18.395-27.683 18.395-44.548s-6.533-32.687-18.395-44.548c-11.862-11.862-27.683-18.395-44.548-18.395s-32.686 6.533-44.547 18.395l-28.4 28.4-30.349-30.349c73.738-70.87 170.904-122.961 288.619-138.826zM243.156 222.164l28.4-28.4c6.195-6.196 14.482-9.608 23.334-9.608s17.139 3.412 23.335 9.608c6.195 6.195 9.607 14.482 9.607 23.334s-3.412 17.139-9.608 23.334l-28.4 28.4zm25.456 67.882l-28.027 28.028c-6.196 6.195-14.483 9.607-23.335 9.607s-17.139-3.412-23.334-9.607c-6.195-6.196-9.607-14.483-9.607-23.334 0-8.852 3.412-17.139 9.607-23.335l28.028-28.027zm-211-201.1L36.398 67.732C32.272 63.606 30 58.082 30 52.176s2.273-11.43 6.399-15.557c4.126-4.126 9.651-6.399 15.556-6.399s11.43 2.272 15.557 6.399l21.213 21.213c8.578 8.578 8.578 22.535 0 31.113-8.579 8.578-22.536 8.578-31.113.001zM31.83 480.16c14.133-101.159 61.71-205.259 138.734-288.162l30.167 30.167-28.027 28.027c-24.564 24.563-24.564 64.532 0 89.095 11.862 11.862 27.683 18.395 44.548 18.395s32.686-6.533 44.548-18.395l28.028-28.028 30.167 30.167C237.088 418.449 132.989 466.027 31.83 480.16zm443.771-4.57c-8.579 8.577-22.535 8.578-31.113 0l-21.213-21.214c-8.578-8.578-8.578-22.535 0-31.112l-2.79-2.79 2.79 2.79c8.578-8.577 22.535-8.577 31.113 0l21.213 21.214c8.577 8.578 8.577 22.535 0 31.112z"/>
</svg>
