<svg xmlns="http://www.w3.org/2000/svg" viewBox="0 0 72 72">
  <path
    d="M47.5884 18.2413H7.2371C5.99739 18.2413 5 17.2346 5 16.0043c0-1.2304 1.00671-2.2371 2.2371-2.2371h40.3513c1.2398 0 2.237 1.0067 2.237 2.2371 0 1.2303-.9972 2.237-2.237 2.237Z" />
  <path
    d="M27.4081 17.8871c-1.2397 0-2.2371-1.0067-2.2371-2.2371V9.23707C25.171 7.99736 26.1777 7 27.4081 7s2.2371 1.00668 2.2371 2.23707V15.65c0 1.2304-.9974 2.2371-2.2371 2.2371ZM12.6806 54.4727c-.6245 0-1.2489-.261-1.687-.7737-.811-.9321-.7085-2.3489.2237-3.1599.1025-.0932 10.4583-9.0974 16.3958-16.1535 6.3291-7.5315 9.8153-14.0563 9.8153-18.3907 0-1.2397 1.0067-2.2371 2.2371-2.2371 1.2303 0 2.2369 1.0067 2.2369 2.2371 0 5.5368-3.6538 12.6954-10.8683 21.2709-6.1613 7.3264-16.4519 16.2748-16.89 16.6569-.4194.3729-.9415.55-1.4635.55Z" />
  <path
    d="M35.648 48.1716c-.4847 0-.9694-.1585-1.3796-.4754-11.0082-8.6594-16.8712-19.4533-17.1136-19.91-.5872-1.0906-.1771-2.4422.9135-3.0294 1.0905-.5872 2.4421-.1771 3.0293.9135.056.1025 5.6859 10.4397 15.9392 18.5025.9694.7643 1.1372 2.1718.3729 3.1412-.4381.5686-1.0906.8576-1.7617.8576ZM63.7606 64.4277c-.8669 0-1.6965-.5127-2.06-1.3609L51.5499 39.2139 41.3992 63.0668c-.4847 1.1371-1.799 1.6685-2.9362 1.1838-1.1372-.4847-1.6685-1.799-1.1838-2.9362l12.2107-28.6905c.3542-.8296 1.1652-1.3609 2.06-1.3609s1.7058.5406 2.06 1.3609l12.2107 28.6905c.4847 1.1372-.0467 2.4515-1.1839 2.9362-.2796.1211-.5778.1771-.8761.1771Z" />
  <path
    d="M59.4915 55.1811H43.8133c-1.2397 0-2.2371-1.0067-2.2371-2.2371s1.0067-2.2371 2.2371-2.2371h15.6782c1.2397 0 2.2371 1.0067 2.2371 2.2371s-.9974 2.2371-2.2371 2.2371Z" />
</svg>