<svg xmlns="http://www.w3.org/2000/svg" viewBox="0 0 72 72">
  <path
    d="M25.4 50.3h-9.8c-7.9 0-14.4-6.4-14.4-14.4v-.2c0-7.9 6.4-14.4 14.4-14.4h9.8c1.3 0 2.4 1.1 2.4 2.4 0 1.3-1.1 2.4-2.4 2.4h-9.8c-5.3 0-9.6 4.3-9.6 9.6v.2c0 5.3 4.3 9.6 9.6 9.6h9.8c1.3 0 2.4 1.1 2.4 2.4 0 1.3-1.1 2.4-2.4 2.4ZM55.7 50.3h-9.8c-1.3 0-2.4-1.1-2.4-2.4 0-1.3 1.1-2.4 2.4-2.4h9.8c5.3 0 9.6-4.3 9.6-9.6v-.2c0-5.3-4.3-9.6-9.6-9.6h-9.8c-1.3 0-2.4-1.1-2.4-2.4 0-1.3 1.1-2.4 2.4-2.4h9.8c7.9 0 14.4 6.4 14.4 14.4v.2c0 8-6.5 14.4-14.4 14.4Z" />
  <path
    d="M53.2 38.2h-35c-1.3 0-2.4-1.1-2.4-2.4 0-1.3 1.1-2.4 2.4-2.4h35c1.3 0 2.4 1.1 2.4 2.4 0 1.3-1.1 2.4-2.4 2.4Z" />
</svg>