<svg xmlns="http://www.w3.org/2000/svg" viewBox="0 0 72 72">
  <path
    d="M58.12 19.8H23.0099c-1.33 0-2.3999-1.07-2.3999-2.4 0-1.33 1.0799-2.4 2.3999-2.4H58.12c1.33 0 2.3999 1.07 2.3999 2.4 0 1.33-1.0799 2.4-2.3999 2.4ZM14.3999 19.8c-.16 0-.31-.01-.47-.04-.15-.03-.2999-.08-.4499-.14-.14-.06-.2801-.13-.4101-.22-.14-.09-.2599-.19-.3699-.3-.44-.45-.7-1.06-.7-1.69 0-.16.0199-.32.0499-.47.03-.16.07-.31.13-.45.06-.15.14-.29.22-.42.09-.13.1901-.25.3001-.36.11-.11.2299-.21.3699-.3.13-.09.2701-.16.4101-.22.15-.06.2999-.11.4499-.14.78-.15 1.6101.1 2.1701.66.11.11.2099.23.2899.36.09.13.1701.27.2301.42.06.14.1.29.13.45.03.15.0499.31.0499.47 0 .62-.2599 1.24-.6999 1.69-.12.11-.24.21-.37.3s-.2701.16-.4101.22c-.15.06-.2999.11-.4499.14-.16.03-.3101.04-.4701.04ZM58.12 38.63H23.0099c-1.33 0-2.3999-1.07-2.3999-2.4 0-1.33 1.0799-2.4 2.3999-2.4H58.12c1.33 0 2.3999 1.07 2.3999 2.4 0 1.33-1.0799 2.4-2.3999 2.4ZM14.3999 38.64c-.16 0-.31-.02-.47-.05-.15-.03-.2999-.08-.4499-.14-.14-.06-.2801-.13-.4101-.22-.14-.09-.2599-.19-.3699-.3-.11-.11-.2101-.23-.3001-.36-.08-.13-.16-.27-.22-.42-.06-.14-.1-.29-.13-.45-.03-.15-.0499-.31-.0499-.46 0-.16.0199-.32.0499-.47.03-.16.07-.31.13-.45.06-.15.14-.29.22-.42.09-.13.1901-.25.3001-.36.11-.11.2299-.21.3699-.3.13-.09.2701-.16.4101-.22.15-.06.2999-.11.4499-.14.31-.06.6301-.06.9401 0 .15.03.2999.08.4499.14.14.06.2801.13.4101.22s.26.19.37.3c.11.11.2099.23.2899.36.09.13.1701.27.2301.42.06.14.1.29.13.45.03.15.0499.31.0499.47 0 .63-.2599 1.25-.6999 1.69-.12.11-.24.21-.37.3s-.2701.16-.4101.22c-.15.06-.2999.11-.4499.14-.16.03-.3101.05-.4701.05ZM58.12 57.47H23.0099c-1.33 0-2.3999-1.07-2.3999-2.4 0-1.33 1.0799-2.4 2.3999-2.4H58.12c1.33 0 2.3999 1.07 2.3999 2.4 0 1.33-1.0799 2.4-2.3999 2.4ZM14.3999 57.47c-.16 0-.31-.02-.47-.05-.15-.03-.2999-.08-.4499-.14-.14-.06-.2801-.13-.4101-.22-.14-.08-.2599-.18-.3699-.29-.44-.45-.7-1.07-.7-1.7 0-.63.26-1.25.7-1.7.11-.11.2299-.21.3699-.3.13-.08.2701-.16.4101-.22.15-.06.2999-.1.4499-.13.78-.16 1.6101.1 2.1701.65.11.11.2099.24.2899.37.09.13.1701.27.2301.41.06.15.1.3.13.45.03.16.0499.31.0499.47 0 .63-.2599 1.25-.6999 1.7-.12.11-.24.21-.37.29-.13.09-.2701.16-.4101.22-.15.06-.2999.11-.4499.14-.16.03-.3101.05-.4701.05Z" />
</svg>