<svg xmlns="http://www.w3.org/2000/svg" viewBox="0 0 72 72">
  <path
    d="M55.1 27v-6.9c0-10.49999-8.5-18.99999-19-18.99999s-19 8.5-19 18.99999V27c-4.5.3-8 4-8 8.5v25.8c0 4.7 3.8 8.6 8.6 8.6h36.9c4.7 0 8.6-3.8 8.6-8.6V35.5c-.1-4.5-3.6-8.2-8.1-8.5Zm-19-21.09999c7.8 0 14.2 6.39999 14.2 14.19999v6.8H21.9v-6.8c0-7.8 6.4-14.19999 14.2-14.19999ZM58.3 61.3c0 2.1-1.7 3.8-3.8 3.8H17.7c-2.1 0-3.8-1.7-3.8-3.8V35.5c0-2.1 1.7-3.8 3.8-3.8h36.9c2.1 0 3.8 1.7 3.8 3.8v25.8h-.1Z" />
  <path
    d="M36.1 36.7c-4.3 0-7.7 3.5-7.7 7.7 0 3.4 2.2 6.3 5.3 7.3V58c0 1.3 1.1 2.4 2.4 2.4 1.3 0 2.4-1.1 2.4-2.4v-6.3c3.1-1 5.3-3.9 5.3-7.3.1-4.3-3.4-7.7-7.7-7.7Zm0 10.6c-1.6 0-2.9-1.3-2.9-2.9 0-1.6 1.3-2.9 2.9-2.9 1.6 0 2.9 1.3 2.9 2.9.1 1.6-1.3 2.9-2.9 2.9Z" />
</svg>