<svg xmlns="http://www.w3.org/2000/svg" viewBox="0 0 32 32">
  <path d="M15 21.915c-.583-.206-1-.762-1-1.415 0-.828.672-1.5 1.5-1.5s1.5.672 1.5 1.5c0 .653-.417 1.209-1 1.415v2.594c0 .263-.224.491-.5.491-.268 0-.5-.22-.5-.491v-2.594zM8 14c-1.658.005-3 1.34-3 3.009v9.981c0 1.662 1.346 3.009 3.009 3.009h14.982c1.662 0 3.009-1.337 3.009-3.009v-9.981c0-1.659-1.341-3.005-3-3.009v-3.501C23 6.357 19.634 3 15.5 3 11.358 3 8 6.357 8 10.499V14zm3 0v-3.499C11 8.009 13.015 6 15.5 6c2.48 0 4.5 2.015 4.5 4.501V14h-9z"/>
</svg>
