<svg xmlns="http://www.w3.org/2000/svg" viewBox="0 0 72 72">
  <path
    d="M62.6 10.2c-5.1-5.09999-11.9-7.99999-19.2-7.99999-7.3 0-14.1 2.8-19.2 7.99999-5.1 5.1-8 11.9-8 19.2 0 6.4 2.2 12.4 6.2 17.2L2.7 67c-.9 1-.9 2.5.1 3.4.4.4 1 .6 1.6.6.6 0 1.3-.2 1.7-.7L25.7 50c5.1 4.3 11.3 6.5 17.6 6.5 7 0 13.9-2.6 19.2-7.9 5.1-5.1 8-11.9 8-19.2 0-7.3-2.8-14.1-7.9-19.2Zm-3.4 35c-8.7 8.7-22.9 8.7-31.6 0C23.3 41 21 35.4 21 29.4s2.3-11.6 6.5-15.8c4.3-4.19999 9.9-6.59999 15.9-6.59999S55 9.30001 59.2 13.5c4.2 4.2 6.5 9.8 6.5 15.8S63.4 41 59.2 45.2Z" />
  <path
    d="M52.9 27H33.8c-1.3 0-2.4 1.1-2.4 2.4 0 1.3 1.1 2.4 2.4 2.4H53c1.3 0 2.4-1.1 2.4-2.4 0-1.3-1.1-2.4-2.5-2.4Z" />
</svg>