<svg xmlns="http://www.w3.org/2000/svg" viewBox="0 0 24 24">
  <path
    d="M9.833 2.28c-2.843.217-5.442 1.974-6.714 4.54a8.209 8.209 0 0 0 .777 8.619c1.407 1.882 3.523 3.056 5.924 3.284 1.976.188 4.21-.483 5.78-1.737l.18-.144 2.44 2.435c2.681 2.676 2.584 2.594 2.945 2.486.218-.065.533-.38.598-.598.108-.361.19-.264-2.486-2.945l-2.435-2.44.144-.18c1.254-1.57 1.925-3.804 1.737-5.78-.186-1.953-.955-3.651-2.278-5.029A8.248 8.248 0 0 0 9.833 2.28m1.576 1.542a6.565 6.565 0 0 1 2.518.872c1.543.912 2.72 2.492 3.118 4.186.555 2.36-.107 4.711-1.803 6.401A6.607 6.607 0 0 1 10.5 17.24a6.668 6.668 0 0 1-4.45-1.678A6.704 6.704 0 0 1 3.76 10.5c0-1.809.693-3.476 1.978-4.762a6.525 6.525 0 0 1 2.471-1.58c.954-.356 2.148-.481 3.2-.336" />
</svg>