<svg xmlns="http://www.w3.org/2000/svg" viewBox="0 0 72 72">
  <path
    d="M62.9 9.89999c-5.1-5.1-11.9-8-19.2-8-7.3 0-14.1 2.8-19.2 8C19.4 15 16.5 21.8 16.5 29.1c0 6.4 2.2 12.4 6.2 17.2L3 66.6c-.9 1-.9 2.5.1 3.4.5.5 1.1.7 1.7.7.6 0 1.3-.2 1.7-.7l19.6-20.3c5.1 4.3 11.3 6.5 17.6 6.5 7 0 13.9-2.6 19.2-7.9 5.1-5.1 8-11.9 8-19.2 0-7.3-2.9-14.1-8-19.20001ZM59.5 44.9c-8.7 8.7-22.9 8.7-31.6 0-4.2-4.2-6.5-9.8-6.5-15.8s2.3-11.6 6.5-15.8c4.2-4.20001 9.8-6.50001 15.8-6.50001s11.6 2.3 15.8 6.50001c4.2 4.2 6.5 9.8 6.5 15.8s-2.3 11.5-6.5 15.8Z" />
  <path
    d="M53.3 26.7h-7.2v-7.2c0-1.3-1.1-2.4-2.4-2.4-1.3 0-2.4 1.1-2.4 2.4v7.2h-7.2c-1.3 0-2.4 1.1-2.4 2.4 0 1.3 1.1 2.4 2.4 2.4h7.2v7.2c0 1.3 1.1 2.4 2.4 2.4 1.3 0 2.4-1.1 2.4-2.4v-7.2h7.2c1.3 0 2.4-1.1 2.4-2.4 0-1.3-1.1-2.4-2.4-2.4Z" />
</svg>