<svg xmlns="http://www.w3.org/2000/svg" viewBox="0 0 72 72">
  <path
    d="M62.5 56.58H9.40002C5.87002 56.58 3 53.71 3 50.18V21.4C3 17.87 5.87002 15 9.40002 15H62.5c3.53 0 6.4 2.87 6.4 6.4v28.78c0 3.53-2.87 6.4-6.4 6.4ZM9.40002 19.8c-.88 0-1.59997.72-1.59997 1.6v28.78c0 .88.71997 1.6 1.59997 1.6H62.5c.88 0 1.6-.72 1.6-1.6V21.4c0-.88-.72-1.6-1.6-1.6H9.40002Z" />
  <path
    d="M35.95 43.19c-.51 0-1.03-.17-1.46-.49L5.25998 20.34c-1.05-.81-1.24996-2.31-.44996-3.36.81-1.05 2.30999-1.25 3.35999-.45L35.94 37.77l27.77-21.24c1.05-.8 2.56-.61 3.36.45.81 1.05.6 2.56-.45 3.36L37.4 42.7c-.42.33-.94.49-1.45.49Z" />
  <path
    d="M6.72009 55.55c-.62 0-1.24008-.24-1.71008-.71-.93-.94-.91998-2.46.02002-3.39L24.77 31.96c.94-.93 2.46-.92 3.39.02.93.94.92 2.46-.02 3.39L8.40003 54.86c-.46.46-1.06994.69-1.67994.69ZM65.17 55.55c-.61 0-1.2201-.23-1.6901-.69l-19.74-19.49c-.94-.93-.9499-2.45-.0199-3.39.93-.94 2.4499-.95 3.3899-.02l19.74 19.49c.94.93.95 2.45.02 3.39-.46.48-1.0799.71-1.6999.71Z" />
</svg>