<svg xmlns="http://www.w3.org/2000/svg" viewBox="0 0 72 72">
  <path
    d="M8.40002 62.6056c-.46 0-.92005-.13-1.31005-.39-.68-.44-1.08997-1.2-1.08997-2.01v-40.8c0-.95.56005-1.81 1.43005-2.2L25.61 9.20561c.74-.33 1.6-.26 2.28.19.68.44 1.09 1.19999 1.09 2.00999v40.8c0 .95-.56 1.81-1.43 2.2l-18.18 8c-.31.14-.63998.2-.96998.2ZM10.8 20.9756v35.55l13.3801-5.89v-35.55L10.8 20.9756ZM44.76 62.6056c-.46 0-.9199-.13-1.3099-.39-.68-.44-1.0901-1.2-1.0901-2.01v-40.8c0-.95.56-1.82 1.44-2.2l18.2801-7.99999c.74-.33 1.5999-.25 2.2799.19.68.44 1.0901 1.19999 1.0901 2.00999v40.8c0 .95-.5601 1.82-1.4401 2.2l-18.28 8c-.32.14-.65.2-.97.2Zm2.4-41.63v35.56l13.47-5.9v-35.55l-13.47 5.89Z" />
  <path
    d="M44.76 62.6056c-.33 0-.66-.07-.97-.2l-18.18-8c-.87-.38-1.4299-1.25-1.4299-2.2v-40.8c0-.81.4099-1.56998 1.0899-2.00998.68-.44 1.54-.51 2.28-.19l18.18 7.99998c.87.38 1.43 1.25 1.43 2.2v40.8c0 .81-.4099 1.57-1.0899 2.01-.4.26-.8601.39-1.3101.39Zm-15.78-11.96 13.38 5.89v-35.56l-13.38-5.89v35.56Z" />
</svg>