<svg xmlns="http://www.w3.org/2000/svg" viewBox="0 0 72 72">
  <path
    d="M49.8 70.7H21.4c-4.1 0-7.4-3.3-7.4-7.4V9.29999c0-4.1 3.3-7.4 7.4-7.4h28.4c4.1 0 7.4 3.3 7.4 7.4V63.3c0 4.1-3.3 7.4-7.4 7.4ZM21.4 6.69999c-1.4 0-2.6 1.2-2.6 2.6V63.3c0 1.4 1.2 2.6 2.6 2.6h28.4c1.4 0 2.6-1.2 2.6-2.6V9.29999c0-1.4-1.2-2.6-2.6-2.6H21.4Z" />
  <path
    d="M33.3 23.7h-9.5c-1.3 0-2.4-1.1-2.4-2.4v-9.5c0-1.3 1.1-2.40001 2.4-2.40001h9.5c1.3 0 2.4 1.10001 2.4 2.40001v9.5c0 1.4-1.1 2.4-2.4 2.4Zm-7.1-4.8h4.7v-4.7h-4.7v4.7Z" />
</svg>