<svg xmlns="http://www.w3.org/2000/svg" viewBox="0 0 72 72">
  <path
    d="M54.6 47.8c-3.6 0-6.8 1.8-8.9 4.5L25.5 38.9c.2-.8.3-1.7.3-2.6 0-.9-.1-1.7-.3-2.6l21.2-13.9c2 2.1 4.8 3.3 7.9 3.3 6.1 0 11-5 11-11 0-5.99999-5-10.99999-11-10.99999s-11 5-11 10.99999c0 1.3.2 2.5.6 3.6L23.4 29.4c-2-2.5-5.1-4.1-8.6-4.1-6.1 0-11 5-11 11 0 6.1 5 11 11 11 3.5 0 6.6-1.6 8.6-4.1l20.3 13.4c-.1.7-.2 1.4-.2 2.1 0 6.1 5 11 11 11s11-5 11-11c.1-6-4.8-10.9-10.9-10.9Zm0-41.89999c3.4 0 6.2 2.8 6.2 6.19999 0 3.4-2.8 6.2-6.2 6.2-2.2 0-4.1-1.1-5.2-2.8 0-.1-.1-.2-.1-.2l-.1-.1c-.5-.9-.8-2-.8-3.1-.1-3.39999 2.7-6.19999 6.2-6.19999ZM14.8 42.6c-3.4 0-6.2-2.8-6.2-6.2 0-3.4 2.8-6.2 6.2-6.2 2.5 0 4.6 1.5 5.6 3.6 0 .1.1.1.1.2.3.8.5 1.6.5 2.5 0 .9-.2 1.7-.5 2.5 0 .1-.1.1-.1.2-1 1.9-3.1 3.4-5.6 3.4Zm39.8 22.5c-3.4 0-6.2-2.8-6.2-6.2 0-.8.1-1.5.4-2.2 0-.1.1-.2.1-.2.9-2.2 3.2-3.8 5.8-3.8 3.4 0 6.2 2.8 6.2 6.2-.1 3.4-2.9 6.2-6.3 6.2Z" />
</svg>