<svg xmlns="http://www.w3.org/2000/svg" viewBox="0 0 256 256">
  <path
    d="M168.856 16.627c-1.113.203-3.321.795-4.906 1.317-12.99 4.277-22.354 13.898-26.43 27.16-1.05 3.414-1.155 4.379-1.171 10.789-.016 6.184.102 7.429.969 10.24.543 1.76 1.069 3.488 1.169 3.84.218.771-45.241 30.082-46.038 29.684-.276-.138-1.75-1.306-3.276-2.595-3.184-2.693-10.874-6.678-14.774-7.656-6.419-1.61-14.42-1.608-20.798.006-3.61.913-10.589 4.378-13.931 6.917-7.247 5.503-12.255 13.293-14.6 22.711-1.258 5.051-1.258 12.869 0 17.92 1.946 7.814 5.253 13.73 10.747 19.223C43.603 163.97 52.95 167.834 64 167.834c10.104 0 19.064-3.365 26.581-9.981 1.111-.978 2.257-1.675 2.546-1.549.29.126 10.606 6.732 22.926 14.68 13.857 8.939 22.372 14.685 22.326 15.066-.041.339-.519 2.057-1.061 3.817-.867 2.81-.985 4.058-.969 10.24.016 6.41.121 7.375 1.171 10.789 3.729 12.133 12 21.356 23.36 26.049 4.935 2.039 9.485 2.917 15.12 2.917s10.185-.878 15.12-2.917c14.486-5.985 23.99-19.445 24.656-34.918.258-6-.248-9.805-1.981-14.901-3.947-11.604-13.357-20.985-25.11-25.033-3.074-1.059-9.332-2.09-12.685-2.09-3.353 0-9.611 1.031-12.685 2.09-4.051 1.395-9.305 4.348-12.82 7.205l-3.318 2.698-23.016-14.796c-20.31-13.056-22.967-14.888-22.599-15.574 1.297-2.425 2.277-8.446 2.253-13.839-.023-5.134-.733-9.37-2.302-13.727-.102-.284 9.73-6.875 22.764-15.26l22.945-14.76 3.316 2.699c5.556 4.523 10.796 7.015 17.776 8.456 7.313 1.509 15.393.739 22.629-2.158 12.876-5.154 22.44-17.175 24.578-30.891.744-4.774.25-12.566-1.079-17.042-2.099-7.064-5.632-12.912-10.768-17.824-4.793-4.584-9.597-7.394-16.367-9.574-3.158-1.017-4.455-1.186-10.027-1.307-3.52-.077-7.311.026-8.424.228m11.624 15.827c7.947 1.283 15.877 8.261 18.394 16.186 1.16 3.651 1.252 10.224.194 13.867-2.313 7.963-8.716 14.367-16.657 16.66-3.37.973-9.452.973-12.822 0-7.893-2.279-14.38-8.766-16.661-16.66-1.053-3.647-.96-10.223.198-13.867 1.837-5.784 6.924-11.561 12.571-14.277 4.566-2.196 9.254-2.801 14.783-1.909m-110.546 72.31c7.99 1.883 15.416 9.299 17.295 17.272 2.023 8.582-.347 16.912-6.554 23.031-4.734 4.666-10.009 6.826-16.675 6.826-6.787 0-11.99-2.172-16.856-7.037-4.843-4.844-7.025-10.078-7.025-16.856 0-6.778 2.182-12.012 7.025-16.856 3.31-3.309 6.89-5.432 10.727-6.36 3.328-.806 8.691-.815 12.063-.02m112.481 72.111c7.641 1.99 14.348 8.684 16.653 16.618 1.15 3.96.999 10.288-.337 14.124-4.769 13.697-20.099 20.185-33.063 13.995-5.607-2.677-10.707-8.472-12.542-14.252-1.168-3.679-1.266-10.249-.207-13.867 2.28-7.793 9.036-14.596 16.482-16.597 3.129-.84 9.826-.851 13.014-.021" />
</svg>