<svg xmlns="http://www.w3.org/2000/svg" viewBox="0 0 64 64">
  <path
    d="M64 44.4c0-5.9-4.8-10.7-10.7-10.7s-10.7 4.8-10.7 10.7c0 3.5 3.2 8.8 5.6 12.8H17.9c-1.3 0-2.7-.5-3.7-1.6-1.3-1.3-1.9-3.2-1.3-5.1.5-2.1 2.9-4 5.6-4h10.4c2.9 0 5.6-1.1 7.5-3.2 2.9-2.9 4-7.2 2.4-11.2-1.3-4-5.6-6.9-10.1-6.9H15.2c2.7-4 6.1-9.9 6.1-13.3 0-5.9-4.8-10.7-10.7-10.7S0 6 0 11.9c0 4.8 6.1 13.9 8 16.5.3 1.1 1.3 2.1 2.7 2.1h17.9c2.4 0 4.5 1.3 5.1 3.5.8 2.1.3 4.3-1.3 5.6-1.1 1.1-2.4 1.6-3.7 1.6H18.1c-5.3 0-9.9 3.5-10.7 8.5-.8 3.5.3 7.2 2.9 9.9 2.1 2.1 4.8 3.2 7.5 3.2h35.5c1.1 0 2.1-.8 2.4-1.6 2.2-2.9 8.3-12.3 8.3-16.8zM10.7 6.5c2.9 0 5.3 2.4 5.3 5.3 0 1.9-2.4 6.4-5.3 10.7-2.9-4.3-5.3-9.1-5.3-10.7-.1-2.9 2.3-5.3 5.3-5.3zm42.6 32.6c2.9 0 5.3 2.4 5.3 5.3 0 1.9-2.4 6.4-5.3 10.7C50.4 50.8 48 46 48 44.4c0-2.9 2.4-5.3 5.3-5.3z" />
  <circle cx="53.3" cy="43.6" r="2.7" />
  <circle cx="10.7" cy="11.1" r="2.7" />
</svg>