<svg xmlns="http://www.w3.org/2000/svg" viewBox="0 0 72 72">
  <path
    d="M52.6 49.9c-5 0-9.2 3.5-10.3 8.2H23c-5.1 0-9.3-4.2-9.3-9.3 0-5.1 4.2-9.3 9.3-9.3h26.1c7.8 0 14.1-6.3 14.1-14.1s-6.3-14.1-14.1-14.1H30.3c-.8-5.10001-5.2-9.00001-10.5-9.00001-5.8 0-10.6 4.7-10.6 10.60001 0 5.9 4.8 10.6 10.6 10.6 4.7 0 8.7-3.1 10.1-7.4h19.2c5.1 0 9.3 4.2 9.3 9.3 0 5.1-4.2 9.3-9.3 9.3H23c-7.8 0-14.1 6.3-14.1 14.1S15.2 62.9 23 62.9h19.3c1.1 4.7 5.3 8.2 10.3 8.2 5.8 0 10.6-4.8 10.6-10.6s-4.7-10.6-10.6-10.6ZM19.8 18.7c-3.2 0-5.8-2.6-5.8-5.8 0-3.20001 2.6-5.80001 5.8-5.80001 3.2 0 5.8 2.6 5.8 5.80001 0 3.2-2.6 5.8-5.8 5.8Zm32.8 47.6c-3.2 0-5.8-2.6-5.8-5.8 0-3.2 2.6-5.8 5.8-5.8 3.2 0 5.8 2.6 5.8 5.8 0 3.2-2.6 5.8-5.8 5.8Z" />
</svg>