<svg xmlns="http://www.w3.org/2000/svg" viewBox="0 0 256 256">
  <path
    d="M68.481 48.879c-1.929 1.016-2.815 1.934-3.679 3.814-.937 2.042-1.018 4.431-.213 6.307.718 1.674 3.036 3.933 4.665 4.547.822.31 16.998.455 51.2.46 41.303.007 50.491.112 52.829.608 8.675 1.838 16.264 9.427 18.102 18.102 2.627 12.392-4.213 24.17-16.452 28.328l-2.773.942-54.187.242c-48.51.216-54.455.315-56.746.944-9.625 2.642-16.725 6.628-23.021 12.924-7.882 7.882-12.42 17.237-13.794 28.431-.611 4.987-.611 5.955.007 10.912 1.407 11.303 5.905 20.581 13.81 28.486 8.101 8.1 18.299 12.818 29.913 13.837 3.091.271 23.475.443 52.867.446l47.835.004.754 2.027c3.816 10.265 12.259 18.126 22.402 20.857 4.197 1.13 12.035 1.041 16.345-.186 11.101-3.161 19.405-11.465 22.566-22.566 1.227-4.31 1.316-12.148.186-16.345-2.383-8.852-8.825-16.635-17.124-20.691-5.188-2.535-9.581-3.393-15.799-3.087-8.419.415-14.854 3.325-20.894 9.451-3.732 3.785-6.112 7.482-7.499 11.651l-.897 2.696-51.482-.117-51.482-.116-2.987-1.002C48.94 186.089 40.107 174.177 40.107 160c0-14.159 8.864-26.112 22.826-30.781l2.987-.999 54.4-.221 54.4-.222 3.84-1.192c4.854-1.507 7.538-2.73 11.184-5.095 18.601-12.065 23.786-37.23 11.477-55.705-3.966-5.953-11.172-11.871-17.767-14.59-7.163-2.954-2.332-2.726-60.787-2.864-47.517-.112-53.037-.056-54.186.548M206.069 185.3c2.707.996 6.309 4.178 7.848 6.932 5.681 10.164-1.316 22.9-12.949 23.573-2.13.123-3.943-.033-5.395-.465-11.556-3.433-15.29-18.045-6.784-26.551 4.52-4.52 10.953-5.819 17.28-3.489" />
</svg>