<svg xmlns="http://www.w3.org/2000/svg" viewBox="0 0 72 72">
  <path
    d="M21.9 61.9c-1.8 0-3.3-.4-4.6-1.4-1.5-1.2-2.3-3.1-2.3-5.7 0-13.5 9.5-24.5 21.2-24.5s21.2 11 21.2 24.5c0 2.5-1.1 3.9-2 4.7-2.8 2.4-7.5 1.6-12.4.8-2.4-.4-4.8-.8-6.8-.8s-4.6.6-7 1.2c-2.6.6-5.1 1.2-7.3 1.2Zm14.3-26.8c-9 0-16.4 8.8-16.4 19.7 0 1 .2 1.7.5 1.9 1.1.9 5-.1 7.8-.7 2.7-.6 5.5-1.3 8.1-1.3 2.4 0 5 .4 7.5.8 3.2.5 7.5 1.2 8.6.3.2-.2.3-.7.3-1-.1-10.9-7.4-19.7-16.4-19.7ZM10.7 41.7C5.9 41.7 2 37.8 2 33c0-4.8 3.9-8.7 8.7-8.7 4.8 0 8.7 3.9 8.7 8.7-.1 4.8-4 8.7-8.7 8.7Zm0-12.6c-2.1 0-3.9 1.7-3.9 3.9s1.7 3.9 3.9 3.9 3.9-1.7 3.9-3.9-1.8-3.9-3.9-3.9ZM26.4 28.6c-4.8 0-8.7-3.9-8.7-8.7 0-4.8 3.9-8.7 8.7-8.7 4.8 0 8.6 4 8.6 8.8 0 4.8-3.9 8.6-8.6 8.6Zm0-12.5c-2.1 0-3.9 1.7-3.9 3.9s1.7 3.9 3.9 3.9 3.9-1.7 3.9-3.9-1.8-3.9-3.9-3.9ZM62.1 41.7c-4.8 0-8.7-3.9-8.7-8.7 0-4.8 3.9-8.7 8.7-8.7 4.8 0 8.7 3.9 8.7 8.7 0 4.8-3.9 8.7-8.7 8.7Zm0-12.6c-2.1 0-3.9 1.7-3.9 3.9s1.7 3.9 3.9 3.9S66 35.1 66 33c0-2.1-1.8-3.9-3.9-3.9ZM46.4 28.6c-4.8 0-8.7-3.9-8.7-8.7 0-4.8 3.9-8.7 8.7-8.7 4.8 0 8.7 3.9 8.7 8.7 0 4.8-3.9 8.7-8.7 8.7Zm0-12.5c-2.1 0-3.9 1.7-3.9 3.9s1.7 3.9 3.9 3.9 3.9-1.7 3.9-3.9-1.8-3.9-3.9-3.9Z" />
</svg>