<svg xmlns="http://www.w3.org/2000/svg" viewBox="0 0 256 256">
  <path
    d="M86.827 32.428c-5.495.998-10.386 3.68-14.772 8.102-7.863 7.926-10.178 19.386-6.034 29.87 3.225 8.16 11.002 14.882 19.526 16.878 4.008.939 11.268.651 15.146-.601 7.99-2.577 15.431-10.015 17.987-17.977 1.248-3.89 1.535-11.152.598-15.153-2.189-9.35-10.092-17.668-19.438-20.459-2.798-.836-10.025-1.202-13.013-.66m72.96-.159c-5.92.919-10.875 3.542-15.589 8.252-6.072 6.067-8.35 11.982-7.973 20.706.337 7.803 2.607 12.995 8.092 18.51 5.363 5.393 10.662 7.701 18.456 8.038 8.095.349 14.246-1.83 19.877-7.044 6.259-5.795 9.364-12.764 9.343-20.969-.032-11.895-8.267-22.966-19.759-26.563-2.603-.814-9.754-1.349-12.447-.93m-62.72 16.963c4.289 2.031 6.744 6.028 6.713 10.931-.021 3.453-.765 5.32-3.161 7.931-4.768 5.196-12.565 5.152-17.501-.099-3.071-3.268-3.871-9.141-1.809-13.279a12.393 12.393 0 0 1 5.916-5.696c2.593-1.178 7.113-1.08 9.842.212m71.708-.212c4.477 2.033 7.018 5.99 7.002 10.904-.04 12.881-17.016 16.685-22.637 5.073-1.929-3.984-.902-9.946 2.295-13.316 3.119-3.288 9.261-4.514 13.34-2.661M37.006 80.881c-4.931 1.195-10.255 4.463-13.854 8.507-4.856 5.454-7.002 11.141-7.002 18.559 0 8.23 2.323 13.843 8.138 19.66 4.398 4.4 8.762 6.776 14.519 7.905 19.152 3.756 36.461-13.553 32.705-32.705-1.104-5.629-3.494-10.076-7.678-14.288-5.915-5.953-11.703-8.339-20.062-8.27-2.368.019-5.413.304-6.766.632m167.417.204c-4.629 1.213-8.269 3.42-12.257 7.434-4.184 4.212-6.574 8.659-7.678 14.288-3.756 19.152 13.553 36.461 32.705 32.705 5.757-1.129 10.121-3.505 14.519-7.905 5.815-5.817 8.138-11.43 8.138-19.66 0-7.418-2.146-13.105-7.002-18.559-3.675-4.129-8.935-7.322-14.048-8.527-3.805-.897-10.494-.793-14.377.224M49.179 97.277c2.344 1.207 4.424 3.199 5.573 5.336.733 1.364.918 2.436.918 5.334 0 4.277-.763 6.087-3.712 8.806-2.635 2.428-5.158 3.307-8.757 3.048-4.6-.33-7.776-2.471-9.99-6.734-1.283-2.47-1.374-7.502-.177-9.814 1.855-3.581 4.701-6.004 8.068-6.869 2.175-.558 6.102-.124 8.077.893m72.55-.855c-4.48.635-7.829 1.71-12.716 4.083-5.601 2.721-9.275 5.425-13.505 9.942-4.138 4.419-6.859 9.061-9.133 15.586-1.024 2.94-2.373 6.361-2.997 7.603-2.978 5.93-8.37 11.606-14.368 15.122-10.481 6.144-16.932 14.461-19.709 25.411-2.511 9.899-1.51 18.731 3.181 28.071C59.109 215.433 73.135 224 88.107 224c5.148 0 8.986-.79 15.851-3.265 9.313-3.356 15.246-4.456 24.042-4.456 8.807 0 14.611 1.086 24.229 4.534 6.697 2.4 10.562 3.187 15.664 3.187 10.025 0 20.273-4.04 27.385-10.797 5.523-5.246 9.096-11.242 11.489-19.283.995-3.341 1.143-4.589 1.141-9.6-.003-6.963-1.153-11.99-4.159-18.168-3.52-7.237-8.354-12.267-16.58-17.251-6.368-3.858-11.55-9.297-14.547-15.265-.624-1.242-1.954-4.61-2.956-7.484-1.002-2.875-2.771-6.832-3.93-8.794-2.43-4.111-7.12-9.302-11.218-12.416-3.784-2.876-11.372-6.535-15.851-7.644-4.138-1.024-12.752-1.469-16.938-.876m95.37.82c2.568 1.31 4.052 2.745 5.412 5.229 1.68 3.071 1.801 7.665.278 10.596-2.214 4.263-5.39 6.404-9.99 6.734-3.599.259-6.122-.62-8.757-3.048-2.949-2.719-3.712-4.529-3.712-8.806 0-2.898.185-3.97.918-5.334 1.467-2.73 4.524-5.255 7.443-6.148 2.055-.628 6.449-.222 8.408.777m-81.569 15.945c4.741 1.373 8.782 3.775 12.304 7.313 3.458 3.474 5.361 6.816 7.67 13.473 1.893 5.459 4.512 10.471 7.643 14.632 2.585 3.435 8.485 9.265 11.152 11.021.936.616 3.65 2.388 6.031 3.939 7.455 4.852 10.987 10.689 11.527 19.048.766 11.873-7.506 22.488-19.484 25.004-4.579.962-7.547.548-15.573-2.173-12.199-4.137-17.621-5.096-28.8-5.096-11.179 0-16.601.959-28.8 5.096-8.026 2.721-10.994 3.135-15.573 2.173-11.32-2.377-19.593-12.308-19.621-23.549-.008-3.524 1.379-8.69 3.214-11.973 2.022-3.615 4.813-6.318 9.638-9.336 5.508-3.444 8.186-5.553 11.704-9.218 5.717-5.954 9.077-11.535 12.168-20.208 2.305-6.47 4.082-9.515 7.611-13.046 3.26-3.262 7.453-5.74 11.978-7.08 4.517-1.338 10.635-1.346 15.211-.02" />
</svg>