<svg xmlns="http://www.w3.org/2000/svg" viewBox="0 0 256 256">
  <path
    d="M163.995 27.885c-1.205.307-2.987 1.028-3.961 1.603-.973.575-29.514 28.783-63.425 62.685-56.203 56.19-61.775 61.885-63.025 64.405l-1.371 2.764v52.498l1.194 2.56c1.567 3.36 4.854 6.66 8.148 8.183l2.605 1.204 25.813.129c14.198.071 26.678.009 27.734-.137 1.887-.261 2.975-1.32 64.774-63.062 34.57-34.539 63.339-63.61 63.931-64.604 2.989-5.023 2.932-11.496-.146-16.498-.591-.962-11.759-12.442-24.817-25.512-21.775-21.794-23.972-23.871-26.516-25.055-3.335-1.553-7.616-2.009-10.938-1.163m26.512 37.822 22.184 22.187-10.346 10.345-10.346 10.346-22.291-22.291-22.291-22.291 10.235-10.242c5.629-5.632 10.333-10.241 10.453-10.241.12 0 10.201 9.984 22.402 22.187m-32 32 22.184 22.187-44.158 44.16-44.158 44.159H48.213V163.202l43.84-43.841c24.111-24.113 43.936-43.841 44.054-43.841.119 0 10.199 9.984 22.4 22.187" />
</svg>