<svg xmlns="http://www.w3.org/2000/svg" viewBox="0 0 72 72">
  <path
    d="M48.0889 65.11c-10.44 0-21.84-8.19-27.85-14.2-9.09-9.09-21.2599-27.71-9.1699-39.8l3.0299-3.03c1.34-1.34 3.13-2.08 5.03-2.08 1.9 0 3.6801.74 5.0301 2.08l7.4399 7.44c1.34 1.34 2.0801 3.13 2.0801 5.03 0 1.9-.7401 3.68-2.0801 5.03l-2.1 2.1c-1 1-1.2399 2.51-.5799 3.76 1.03 1.94 2.6099 4 4.7099 6.1 2.68 2.67 4.8401 4.08 6.1801 4.79 1.24.66 2.75.43 3.76-.58l2.1-2.1c2.77-2.77 7.2799-2.77 10.0499 0l7.4401 7.44c1.34 1.34 2.0799 3.13 2.0799 5.03 0 1.9-.7399 3.68-2.0799 5.03l-3.0301 3.03c-3.56 3.52-7.72 4.93-12.04 4.93Zm-28.97-54.32c-.59 0-1.18.22-1.63.67l-3.03 3.03c-11.78001 11.78 8.31 32.15 9.17 33.01 5.89 5.89 23.31 19.03 33.09 9.25l3.03-3.03c.9-.9.9-2.36 0-3.26l-7.4399-7.44c-.9-.9-2.36-.9-3.26 0l-2.1001 2.1c-2.5 2.5-6.2799 3.07-9.3899 1.43-2.37-1.25-4.8301-3.15-7.3301-5.64-2.44-2.45-4.3099-4.89-5.5599-7.25-1.65-3.12-1.0701-6.89 1.4299-9.4l2.1-2.1c.44-.44.68-1.02.68-1.63 0-.62-.24-1.2-.68-1.63l-7.44-7.44c-.46-.44-1.05-.67-1.64-.67Z" />
</svg>