<svg xmlns="http://www.w3.org/2000/svg" viewBox="0 0 72 72">
  <path
    d="M61.5 8.59998h-50C6.30001 8.59998 2.10001 12.8 2.10001 18v37.1c0 5.2 4.2 9.4 9.39999 9.4h50.1c5.2 0 9.4-4.2 9.4-9.4V17.9c-.1-5.1-4.3-9.30002-9.5-9.30002ZM11.5 13.4h50.1c2.5 0 4.6 2 4.6 4.6v24L51.4 27.3c-.9-.9-2.4-.9-3.4 0l-16.2 16-9-7.8c-.9-.8-2.3-.8-3.2 0L6.90001 47.3V17.9c0-2.5 2-4.5 4.59999-4.5Zm50 46.2h-50c-2.49999 0-4.59999-2-4.59999-4.6v-1.3L21.3 40.5l9 7.9c.9.8 2.4.8 3.3-.1l16.1-15.9 16.4 16.3v6.4c0 2.5-2 4.5-4.6 4.5Z" />
  <path
    d="M21.3 31.8c4.4 0 7.9-3.5 7.9-7.9S25.7 16 21.3 16s-7.9 3.5-7.9 7.9 3.5 7.9 7.9 7.9Zm0-11c1.7 0 3.1 1.4 3.1 3.1 0 1.7-1.4 3.1-3.1 3.1-1.7 0-3.1-1.4-3.1-3.1 0-1.7 1.4-3.1 3.1-3.1Z" />
</svg>