<svg xmlns="http://www.w3.org/2000/svg" viewBox="0 0 16 16">
  <path
    d="M7.8574218.0056885C4.5724219.1386885 2 2.9187666 2 6.3357666c0 4.7640004 5.799875 8.7977974 6.046875 8.9667974l.2949218.201172.2871094-.212891c.228-.169 5.5800788-4.20925 5.5800788-9.4062503-.001-1.566-.637922-3.0422968-1.794922-4.1542969-1.213-1.165-2.8586412-1.7976094-4.5566412-1.7246093zm.2480469.9960937c1.341 0 2.6472353.5211719 3.6152353 1.4511719.958999.921 1.486328 2.1406406 1.486328 3.4316406 0 4.0419999-3.8056258 7.4799533-4.8906258 8.3769533C7.1574062 13.389548 3 10.005767 3 6.3357666c0-2.878 2.1514375-5.2190781 4.8984375-5.3300781.068-.003.1390312-.00391.2070312-.00391zM8.0234377 4c-1.102.044-1.9619688.9780781-1.9179688 2.0800781C6.1494689 7.1550781 7.0355627 8 8.1015627 8c.027 0 .055031-.0009531.082031-.00195 1.102-.044 1.9619693-.9780781 1.9179693-2.0800782-.045-1.102-.9971255-1.9579687-2.0781253-1.9179718Zm.041016 1h.039063c.533 0 .9770469.4219844.9980469.9589844.022.552-.4069844 1.0170625-.9589844 1.0390625-.523.01-1.0161094-.4079844-1.0371094-.9589844-.022-.551.4069844-1.0170625.9589839-1.0390625Z" />
</svg>