<svg xmlns="http://www.w3.org/2000/svg" viewBox="0 0 72 72">
  <path
    d="M35.7 70.9C35 70.9 34.4 70.6 33.9 70.1C33 69.1 10.9 44.7 10.9 26.9C10.9 13.2 22 2.10001 35.7 2.10001C49.4 2.10001 60.5 13.2 60.5 26.9C60.5 44.7 38.4 69.1 37.5 70.1C37 70.6 36.4 70.9 35.7 70.9ZM35.7 6.90001C24.7 6.90001 15.7 15.9 15.7 26.9C15.7 40.1 30.5 58.7 35.7 64.8C40.9 58.7 55.7 40.1 55.7 26.9C55.7 15.9 46.7 6.90001 35.7 6.90001Z" />
  <path
    d="M35.7 38.6C28.9 38.6 23.3 33 23.3 26.2C23.3 19.4 28.9 13.8 35.7 13.8C42.5 13.8 48.1 19.4 48.1 26.2C48.1 33 42.5 38.6 35.7 38.6ZM35.7 18.6C31.5 18.6 28.1 22 28.1 26.2C28.1 30.4 31.5 33.8 35.7 33.8C39.9 33.8 43.3 30.4 43.3 26.2C43.3 22 39.9 18.6 35.7 18.6Z" />
</svg>