<svg xmlns="http://www.w3.org/2000/svg" viewBox="0 0 72 72">
  <path
    d="M30.8 69.8c-1.6 0-3.1-.6-4.2-1.7L5.1 46.6c-1.2-1.2-1.8-2.7-1.7-4.4 0-1.6.7-3.2 1.9-4.3L35.6 7.6c1.4-1.4 3.3-2.2 5.2-2.2L64.9 5c1.1 0 2.1.5 2.9 1.2.8.8 1.2 1.8 1.1 2.9l-1 23.5c-.1 1.9-.9 3.6-2.2 5L35.3 68c-1.2 1.2-2.7 1.8-4.3 1.9 0-.1-.1-.1-.2-.1ZM64.1 9.9l-23.3.3c-.7 0-1.3.3-1.8.8L8.7 41.3c-.6.6-.6 1.4-.2 1.9L30 64.7c.3.3.6.3.9.3.4 0 .8-.2 1.1-.5l30.3-30.3c.5-.5.8-1.1.8-1.8l1-22.5Z" />
  <path
    d="M53.2 26.9c-1.8 0-3.5-.7-4.8-2-1.3-1.3-2-3-2-4.8 0-1.8.7-3.5 2-4.8 1.3-1.3 3-2 4.8-2 1.8 0 3.5.7 4.8 2 1.3 1.3 2 3 2 4.8 0 1.8-.7 3.5-2 4.8-1.3 1.3-3 2-4.8 2Zm0-8.9c-.5 0-1.1.2-1.4.6-.8.8-.8 2.1 0 2.9.8.8 2.1.8 2.9 0 .8-.8.8-2.1 0-2.9-.4-.4-.9-.6-1.5-.6Z" />
</svg>