<svg xmlns="http://www.w3.org/2000/svg" viewBox="0 0 32 32">
  <path
    d="M13.29 29.94a2.89 2.89 0 0 1-2.07-.85l-8.48-8.48a2.92 2.92 0 0 1-.85-2.2 3.29 3.29 0 0 1 1-2.17L16 3.12a3.21 3.21 0 0 1 2.37-1l8.28.21a2.88 2.88 0 0 1 2.82 2.87l.21 8.27a3.27 3.27 0 0 1-1 2.38L15.59 29a3.23 3.23 0 0 1-2.17 1Zm-.65-2.26a.91.91 0 0 0 .7.26 1.3 1.3 0 0 0 .83-.38L27.3 14.43a1.24 1.24 0 0 0 .38-.9l-.21-8.28a.89.89 0 0 0-.89-.89l-8.28-.21a1.27 1.27 0 0 0-.9.38L4.27 17.66a1.3 1.3 0 0 0-.38.83.91.91 0 0 0 .26.7ZM22.83 12a3 3 0 0 1-2.12-.88 3 3 0 1 1 4.24 0 3 3 0 0 1-2.12.88Zm0-4a1 1 0 0 0-.71.29 1 1 0 1 0 1.42 1.42 1 1 0 0 0 .29-.71 1 1 0 0 0-.29-.71 1 1 0 0 0-.71-.29Z" />
</svg>