<svg xmlns="http://www.w3.org/2000/svg" viewBox="0 0 32 32">
  <path
    d="M24,10.05V7a5,5,0,0,0-5-5H13A5,5,0,0,0,8,7v3.05A3,3,0,0,0,5.5,13v2a3,3,0,0,0,1.4,2.53A3,3,0,0,0,6.5,19v2a3,3,0,0,0,1.4,2.53A3,3,0,0,0,7.5,25v2a3,3,0,0,0,3,3h11a3,3,0,0,0,3-3V25a3,3,0,0,0-.4-1.47A3,3,0,0,0,25.5,21V19a3,3,0,0,0-.4-1.47A3,3,0,0,0,26.5,15V13A3,3,0,0,0,24,10.05ZM10,7a3,3,0,0,1,3-3h6a3,3,0,0,1,3,3v3H21V7a2,2,0,0,0-2-2H13a2,2,0,0,0-2,2v3H10Zm9,3H13V7h6ZM7.5,13a1,1,0,0,1,1-1h15a1,1,0,0,1,1,1v2a1,1,0,0,1-1,1H8.5a1,1,0,0,1-1-1Zm16,6v2a1,1,0,0,1-1,1H9.5a1,1,0,0,1-1-1V19a1,1,0,0,1,1-1h13A1,1,0,0,1,23.5,19Zm-1,8a1,1,0,0,1-1,1h-11a1,1,0,0,1-1-1V25a1,1,0,0,1,1-1h11a1,1,0,0,1,1,1Z"
    data-name="Sleeping Bag" />
</svg>