<svg xmlns="http://www.w3.org/2000/svg" viewBox="0 0 72 72">
  <path
    d="M58.4 25.1C58.4 12.5 48.2 1.90002 36 1.90002S13.4 12.4 13.6 24.9c.2 18.1 3.1 37.4 3.1 37.2.5 4.9 5.3 8.6 11.3 8.6h16.4c6 0 10.8-3.7 11.3-8.6-.1 0 2.7-35.1 2.7-37ZM46 27.4l-18.2 9.4-6.8-9.5 25 .1Zm-16.6-4.8c.5-3 3.2-5.3 6.5-5.3s6 2.3 6.5 5.3h-13ZM36 6.70002c8.8 0 16.3 7.09998 17.5 15.89998h-6.2c-.5-5.7-5.3-10.1-11.4-10.1-6 0-10.8 4.3-11.4 10.1h-6.1C19.7 13.7 27.2 6.70002 36 6.70002ZM50.8 61.7c-.2 2.3-3.1 4.2-6.5 4.2H27.9c-3.4 0-6.3-1.9-6.5-4.2L19 32.8l5.1 7c.8 1.2 2.2 1.9 3.6 1.9.7 0 1.5-.2 2.2-.6L53.3 29l-2.5 32.7Z" />
</svg>