<svg xmlns="http://www.w3.org/2000/svg" viewBox="0 0 72 72">
  <path
    d="M53 67.9c-.7 0-1.4-.2-2.1-.5l-15.2-7.1-15.2 7.1c-1.7.8-3.5.6-5-.4-1.5-1.1-2.3-2.8-2.1-4.6l1.8-17.1L3.7 32.9c-1.3-1.4-1.7-3.3-1.1-5 .6-1.7 2.1-3 3.9-3.3L23.2 22l7.9-16.09999c.9-1.7 2.6-2.7 4.4-2.7 1.8 0 3.5 1 4.4 2.7L47.9 22.1l16.7 2.6c1.8.3 3.3 1.6 3.9 3.3.6 1.7.2 3.7-1.1 5L56.1 45.3l1.8 17.1c.2 1.8-.6 3.5-2.1 4.6-.8.6-1.8.9-2.8.9ZM35.7 55.2c.3 0 .7.1 1 .2L52.9 63h.2c.1-.1.1-.1.1-.2l-1.9-18.2c-.1-.7.2-1.4.6-1.9l12.3-13.2s.1-.1 0-.2c0-.1-.1-.1-.2-.1l-17.9-2.8c-.8-.1-1.4-.6-1.8-1.3L35.8 8.00001h-.1c-.1 0-.1.1-.2.1L27 25.2c-.3.7-1 1.2-1.8 1.3L7.3 29.3s-.1 0-.2.1v.2l12.3 13.2c.5.5.7 1.2.6 1.9l-1.9 18.2s0 .1.1.2.2 0 .2 0l16.2-7.6c.4-.2.7-.3 1.1-.3Z" />
</svg>