<svg xmlns="http://www.w3.org/2000/svg" viewBox="0 0 72 72">
  <path
    d="m70.1 51.3-8.3-7.2v-3.4c0-.6-.2-1.1-.5-1.5L37.9 10.9c-.9-1.09999-2.8-1.09999-3.7 0L10.8 39.2c-.4.4-.5 1-.5 1.5v2.6c-.1 0-.1.1-.2.1l-8.2 7.9c-.999998.9-.999998 2.4-.1 3.4.5.5 1.1.7 1.7.7.6 0 1.2-.2 1.7-.7l5.1-4.9v4.3c0 1.3 1.1 2.4 2.4 2.4h46.6c1.3 0 2.4-1.1 2.4-2.4v-3.8l5.2 4.5c.5.4 1 .6 1.6.6.7 0 1.3-.3 1.8-.8.9-.9.8-2.4-.2-3.3Zm-38.7.5 4.7-12.3 5.5 12.3H31.4Zm25.5 0H47l-8.8-19.4c-.4-.9-1.3-1.4-2.3-1.4-1 0-1.8.6-2.2 1.5l-7.5 19.3H15.1V41.6L36 16.2l20.9 25.4v10.2Z" />
</svg>