<svg xmlns="http://www.w3.org/2000/svg" viewBox="0 0 72 72">
  <path
    d="M37.7 13V8.39998h5.9c1.3 0 2.4-1.1 2.4-2.4 0-1.3-1.1-2.4-2.4-2.4H27.1c-1.3 0-2.4 1.1-2.4 2.4 0 1.3 1.1 2.4 2.4 2.4H33V13C18.5 14.2 7.10001 26.4 7.10001 41.1 7.10001 56.7 19.8 69.4 35.4 69.4c15.6 0 28.3-12.7 28.3-28.3-.1-14.7-11.5-26.9-26-28.1Zm-2.4 51.6c-12.9 0-23.5-10.5-23.5-23.5s10.5-23.5 23.5-23.5c12.9 0 23.5 10.5 23.5 23.5S48.3 64.6 35.3 64.6Z" />
  <path
    d="M46.9 26.8 33.5 38.6c-1 .9-1.1 2.4-.2 3.4.5.5 1.1.8 1.8.8.6 0 1.1-.2 1.6-.6l13.4-11.8c1-.9 1.1-2.4.2-3.4-.9-1-2.4-1.1-3.4-.2Z" />
</svg>