<svg xmlns="http://www.w3.org/2000/svg" viewBox="0 0 24 24">
  <path d="M18 7v13c0 .276-.111.525-.293.707S17.276 21 17 21H7c-.276 0-.525-.111-.707-.293S6 20.276 6 20V7zm-1-2V4c0-.828-.337-1.58-.879-2.121S14.828 1 14 1h-4c-.828 0-1.58.337-2.121.879S7 3.172 7 4v1H3c-.552 0-1 .448-1 1s.448 1 1 1h1v13c0 .828.337 1.58.879 2.121S6.172 23 7 23h10c.828 0 1.58-.337 2.121-.879S20 20.828 20 20V7h1c.552 0 1-.448 1-1s-.448-1-1-1zM9 5V4c0-.276.111-.525.293-.707S9.724 3 10 3h4c.276 0 .525.111.707.293S15 3.724 15 4v1zm0 6v6c0 .552.448 1 1 1s1-.448 1-1v-6c0-.552-.448-1-1-1s-1 .448-1 1zm4 0v6c0 .552.448 1 1 1s1-.448 1-1v-6c0-.552-.448-1-1-1s-1 .448-1 1z"/>
</svg>
