<svg xmlns="http://www.w3.org/2000/svg" viewBox="0 0 256 256">
  <path
    d="M97.707 16.83c-5.919 1.666-10.604 5.194-14.156 10.659-2.545 3.916-3.353 7.115-3.643 14.42l-.25 6.282-20.744-.016c-12.331-.009-21.183.151-21.826.396-5.996 2.28-6.756 10.457-1.32 14.187 1.348.925 2.029 1.043 6.751 1.17l5.251.141.115 73.459.115 73.459.991 2.454c1.861 4.61 5.901 8.545 10.077 9.818 2.523.769 135.341.769 137.864 0 4.176-1.273 8.216-5.208 10.077-9.818l.991-2.454.116-73.494.116-73.493h4.698c5.306 0 6.728-.422 8.804-2.616 2.327-2.459 2.879-5.33 1.61-8.369-.852-2.039-1.745-2.996-3.753-4.021-1.559-.795-2.614-.834-22.445-.819l-20.808.016-.249-6.069c-.272-6.644-.992-10.075-2.777-13.22-3.447-6.077-8.868-10.417-15.075-12.069-3.158-.84-57.545-.843-60.53-.003m58.563 16.556c3.134 2.39 3.5 3.327 3.666 9.387l.15 5.44H96v-4.426c0-2.435.128-5.068.285-5.852.336-1.68 3.781-5.334 5.311-5.633.559-.109 12.744-.174 27.078-.143l26.06.054 1.536 1.173M192 136.107v72.106H64V64h128v72.107m-90.24-39.744c-1.703.553-3.475 1.884-4.5 3.379l-1.047 1.528-.118 33.952c-.131 37.327-.21 36.082 2.448 38.628 1.194 1.144 5.021 2.5 6.114 2.166.284-.087 1.041-.273 1.682-.413 1.447-.317 3.972-2.492 4.936-4.253.661-1.207.736-4.193.845-33.94.082-22.565-.026-33.316-.352-34.885-.265-1.277-.961-2.85-1.595-3.603-1.957-2.327-5.663-3.454-8.413-2.559m46.916.413c-2.387 1.12-3.886 3.06-4.444 5.749-.326 1.569-.434 12.32-.352 34.885.109 29.747.184 32.733.845 33.94.964 1.761 3.489 3.936 4.936 4.253.641.14 1.398.326 1.682.413 1.093.334 4.92-1.022 6.114-2.166 2.658-2.546 2.579-1.297 2.448-38.672-.117-33.592-.129-34.01-.999-35.176-2.695-3.608-6.716-4.876-10.23-3.226" />
</svg>