<svg xmlns="http://www.w3.org/2000/svg" viewBox="0 0 72 72">
  <path
    d="M65.1 14.4H47.3v-4c0-3.40002-2.8-6.30002-6.3-6.30002H30.5c-3.4 0-6.3 2.8-6.3 6.30002v4H6.4c-1.3 0-2.4 1.1-2.4 2.4 0 1.3 1.1 2.4 2.4 2.4h2.1l5.8 41c.7 5 5 8.8 10 8.8h22.9c5 0 9.4-3.8 10-8.8l5.8-41h2.1c1.3 0 2.4-1.1 2.4-2.4 0-1.3-1.1-2.4-2.4-2.4Zm-36.1-4c0-.80002.7-1.50002 1.5-1.50002H41c.8 0 1.5.7 1.5 1.50002v4H29v-4Zm23.5 49.1c-.4 2.6-2.6 4.6-5.3 4.6H24.3c-2.7 0-4.9-2-5.3-4.6l-5.7-40.3h44.9l-5.7 40.3Z" />
  <path
    d="M26.2 55.6c.1 1.2 1.2 2.1 2.4 2.1h.3c1.3-.2 2.3-1.3 2.1-2.7l-2.8-23.8c-.2-1.3-1.4-2.2-2.7-2.1-1.3.2-2.3 1.3-2.1 2.7l2.8 23.8ZM41.9 57.7h.3c1.2 0 2.2-.9 2.4-2.1l2.8-23.8c.2-1.3-.8-2.5-2.1-2.7-1.3-.1-2.5.8-2.7 2.1L39.8 55c-.1 1.3.8 2.5 2.1 2.7Z" />
</svg>