<svg xmlns="http://www.w3.org/2000/svg" viewBox="0 0 512 512">
  <path
    d="M105.054 321.244c-35.365 0-64.138 28.768-64.138 64.138s28.774 64.138 64.138 64.138c35.364 0 64.138-28.774 64.138-64.138 0-35.364-28.774-64.138-64.138-64.138zm0 95.107c-17.074 0-30.963-13.889-30.963-30.963s13.889-30.969 30.963-30.969 30.963 13.895 30.963 30.969-13.889 30.963-30.963 30.963zm286.41-95.107c-35.37 0-64.138 28.768-64.138 64.138s28.774 64.138 64.138 64.138c35.365 0 64.138-28.774 64.138-64.138.001-35.364-28.768-64.138-64.138-64.138zm0 95.107c-17.074 0-30.963-13.889-30.963-30.963s13.889-30.969 30.963-30.969 30.969 13.895 30.969 30.969-13.895 30.963-30.969 30.963z" />
  <path
    d="M63.032 144.864a16.589 16.589 0 0 0-14.746 8.99L1.841 243.98A16.578 16.578 0 0 0 0 251.577v133.806c0 9.162 7.426 16.587 16.587 16.587H56.95v-33.175H33.175V255.602l39.97-77.563h126.457v-33.175H63.032zm91.231 223.931H343.36v33.175H154.263z" />
  <path
    d="M495.413 62.479h-295.81c-9.162 0-16.587 7.426-16.587 16.587v306.315h33.175V95.654h262.635v273.14h-39.81v33.175h56.397c9.162 0 16.587-7.426 16.587-16.587V79.067c0-9.162-7.426-16.588-16.587-16.588z" />
  <path d="M16.587 235.542h183.015v33.175H16.587z" />
</svg>