<svg xmlns="http://www.w3.org/2000/svg" viewBox="0 0 72 72">
  <path
    d="M63.2 10.3H35.5c-3.7 0-6.7 3-6.7 6.7v4H12c-.9 0-1.7.5-2.09999 1.3l-8.5 16.2c-.2.3-.3.7-.3 1.1v15.8c0 1.3 1.1 2.4 2.4 2.4h5.9C10.4 61.2 13.6 63.7 17.4 63.7c3.8 0 6.9-2.5 8-5.9h21.4c1 3.4 4.2 5.9 8 5.9s6.9-2.5 8-5.9h4.9c1.3 0 2.4-1.1 2.4-2.4V17c-.2-3.7-3.2-6.7-6.9-6.7ZM13.4 25.8h6.4v10.6H7.80001L13.4 25.8ZM5.90001 41.2H22.3c1.3 0 2.4-1.1 2.4-2.4v-13h4.1V53h-3.5c-1-3.4-4.2-5.9-8-5.9s-6.9 2.5-7.99999 5.9h-3.4V41.2ZM17.4 58.9c-1.9 0-3.5-1.6-3.5-3.5s1.6-3.5 3.5-3.5 3.5 1.6 3.5 3.5-1.6 3.5-3.5 3.5Zm37.2 0c-1.9 0-3.5-1.6-3.5-3.5s1.6-3.5 3.5-3.5 3.5 1.6 3.5 3.5-1.5 3.5-3.5 3.5ZM65.1 53h-2.5c-1-3.4-4.2-5.9-8-5.9s-6.9 2.5-8 5.9h-13V17c0-1.1.9-1.9 1.9-1.9h27.6c1.1 0 1.9.9 1.9 1.9v36h.1Z" />
</svg>