<svg xmlns="http://www.w3.org/2000/svg" viewBox="0 0 64 64">
  <path d="M20.1 58.1c24.2 0 37.4-20 37.4-37.4 0-.5 0-1.1-.1-1.7 2.6-1.9 4.8-4.2 6.5-6.8-2.4 1.1-4.9 1.8-7.6 2.1 2.7-1.6 4.8-4.2 5.8-7.3-2.6 1.5-5.3 2.6-8.4 3.2C51.3 7.6 47.9 6 44.1 6c-7.3 0-13.2 5.9-13.2 13.2 0 1 .1 2 .3 3-10.6-.6-20.3-5.8-26.8-13.8-1.1 2-1.8 4.2-1.8 6.6 0 4.6 2.3 8.6 5.9 10.9-2.2-.1-4.2-.7-5.9-1.6v.1c0 6.3 4.5 11.7 10.5 12.9-1.1.3-2.3.5-3.4.5-.9 0-1.7-.1-2.5-.3 1.7 5.2 6.5 9 12.3 9.1-4.5 3.5-10.2 5.6-16.3 5.6-1.2.1-2.2 0-3.2-.1 5.7 3.8 12.7 6 20.1 6"/>
</svg>
