<svg xmlns="http://www.w3.org/2000/svg" viewBox="0 0 72 72">
  <path
    d="M45.4 33.9c4.2-3 7-7.9 7-13.5 0-9.2-7.5-16.60001-16.6-16.60001-9.1 0-16.6 7.50001-16.6 16.60001 0 5.6 2.8 10.5 7 13.5-10.5 3.9-18 14.1-18 26v.7c.1 4.4 3.8 8 8.3 8h38.7c4.5 0 8.2-3.6 8.3-8v-.7c0-11.9-7.5-22.1-18.1-26ZM24 20.4c0-6.5 5.3-11.80001 11.8-11.80001 6.5 0 11.8 5.30001 11.8 11.80001s-5.3 11.8-11.8 11.8c-6.5 0-11.8-5.3-11.8-11.8Zm34.7 40c0 1.9-1.6 3.4-3.5 3.4H16.5c-1.9 0-3.5-1.5-3.5-3.4v-.5C13 47.2 23.2 37 35.8 37c12.6 0 22.9 10.3 22.9 22.9v.5Z" />
</svg>