<svg xmlns="http://www.w3.org/2000/svg" viewBox="0 0 256 256">
  <path
    d="M124.587 24.179c-21.886 1.134-41.296 11.561-54.669 29.368-6.619 8.813-11.352 20.434-13.207 32.426-.68 4.394-.68 15.66 0 20.054 1.515 9.793 4.801 18.985 9.763 27.306 4.972 8.339 13.705 17.358 22.268 22.998l2.135 1.406-4.798 1.827c-24.047 9.154-44.267 25.244-58.071 46.211-4.568 6.937-5.098 8.113-4.875 10.807.47 5.662 6.105 8.944 11.304 6.583 1.874-.85 2.073-1.094 6.874-8.419 5.662-8.638 13.284-17.158 20.742-23.182 11.697-9.449 26.682-16.953 40.774-20.417 9.295-2.286 14.056-2.819 25.173-2.819 11.117 0 15.878.533 25.173 2.819 7.118 1.75 13.458 4.095 20.742 7.674 16.793 8.249 30.618 20.43 40.774 35.925 4.801 7.325 5 7.569 6.874 8.419 5.199 2.361 10.834-.921 11.304-6.583.223-2.694-.307-3.87-4.875-10.807-13.999-21.263-34.44-37.377-59.146-46.627l-3.74-1.4 2.144-1.412c8.572-5.645 17.302-14.66 22.276-23.003 3.791-6.358 6.424-12.717 8.216-19.84 1.6-6.362 2.075-10.369 2.075-17.493 0-9.21-1.303-16.658-4.387-25.073-8.048-21.959-27.037-38.942-49.937-44.662-6.21-1.551-14.765-2.404-20.906-2.086m11.942 16.567c11.645 1.749 22.376 7.225 30.938 15.787 8.562 8.562 14.038 19.293 15.787 30.938 4.442 29.573-14.717 57.083-44.175 63.431-5.081 1.094-17.077 1.094-22.158 0-11.049-2.381-20.523-7.527-28.388-15.42-21.939-22.015-21.946-57.033-.015-78.964 12.687-12.688 30.214-18.445 48.011-15.772" />
</svg>