<svg xmlns="http://www.w3.org/2000/svg" viewBox="0 0 512 512">
  <path
    d="m470.67 265.743-33.162-88.63V17.737C437.509 7.94 429.569 0 419.772 0h-80.998c-9.797 0-17.737 7.94-17.737 17.737V43.16c0 35.858-29.177 65.035-65.035 65.035s-65.035-29.177-65.035-65.035V17.737C190.968 7.94 183.028 0 173.232 0H92.234c-9.797 0-17.737 7.94-17.737 17.737v159.376l-33.168 88.63a17.746 17.746 0 0 0-1.123 6.22v222.3c0 9.797 7.94 17.737 17.737 17.737h396.12c9.797 0 17.737-7.94 17.731-17.737v-222.3c0-2.128-.379-4.227-1.124-6.22zm-34.344 210.784H75.68V275.173l33.168-88.636a17.693 17.693 0 0 0 1.123-6.214V35.473h45.524v7.686c0 55.421 45.087 100.508 100.508 100.508S356.511 98.581 356.511 43.159v-7.686h45.524v144.85c0 2.122.378 4.227 1.123 6.214l33.168 88.636v201.354z" />
  <path
    d="M175.005 309.21H59.125v35.473h98.143v63.261H59.125v35.473h115.88c9.791 0 17.737-7.94 17.737-17.737v-98.734c0-9.796-7.94-17.736-17.737-17.736zm277.876 35.474V309.21h-115.88c-9.797 0-17.737 7.94-17.737 17.737v98.734c0 9.797 7.94 17.737 17.737 17.737h115.88v-35.473h-98.143v-63.261h98.143z" />
</svg>