<svg xmlns="http://www.w3.org/2000/svg" viewBox="0 0 24 24">
  <path
    d="M6.517 4.822a9.28 9.28 0 0 0-1.714.429c-.822.292-2.219 1.054-2.435 1.328-.22.279-.172.651.124.958.2.208.397.276.618.215.082-.023.389-.185.68-.361 2.133-1.287 4.152-1.482 6.249-.604.512.215.844.395 1.621.881 2.635 1.65 4.984 1.987 7.537 1.081.822-.292 2.219-1.054 2.435-1.328.22-.279.172-.651-.124-.958-.2-.208-.397-.276-.618-.215-.082.023-.389.185-.68.361-2.131 1.286-4.154 1.481-6.249.604-.512-.215-.844-.395-1.621-.881-1.736-1.087-3.28-1.581-4.897-1.567a8.83 8.83 0 0 0-.926.057m0 5a9.28 9.28 0 0 0-1.714.429c-.822.292-2.219 1.054-2.435 1.328-.22.279-.172.651.124.958.2.208.397.276.618.215.082-.023.389-.185.68-.361 2.133-1.287 4.152-1.482 6.249-.604.512.215.844.395 1.621.881 2.635 1.65 4.984 1.987 7.537 1.081.822-.292 2.219-1.054 2.435-1.328.22-.279.172-.651-.124-.958-.2-.208-.397-.276-.618-.215-.082.023-.389.185-.68.361-2.131 1.286-4.154 1.481-6.249.604-.512-.215-.844-.395-1.621-.881-1.736-1.087-3.28-1.581-4.897-1.567a8.83 8.83 0 0 0-.926.057m0 5a9.28 9.28 0 0 0-1.714.429c-.822.292-2.219 1.054-2.435 1.328-.22.279-.172.651.124.958.2.208.397.276.618.215.082-.023.389-.185.68-.361 2.133-1.287 4.152-1.482 6.249-.604.512.215.844.395 1.621.881 2.635 1.65 4.984 1.987 7.537 1.081.822-.292 2.219-1.054 2.435-1.328.22-.279.172-.651-.124-.958-.2-.208-.397-.276-.618-.215-.082.023-.389.185-.68.361-2.131 1.286-4.154 1.481-6.249.604-.512-.215-.844-.395-1.621-.881-1.736-1.087-3.28-1.581-4.897-1.567a8.83 8.83 0 0 0-.926.057" />
</svg>