<svg xmlns="http://www.w3.org/2000/svg" viewBox="0 0 72 72">
  <path
    d="M52.1 28.6c-5.7 0-10.3-2-14.1-3.7-1.9-.9-3.6-1.7-5.1-2.5-4.3-2.2-7.5-3.9-13.6-3.9-8.1 0-14.10001 4.4-14.20001 4.4-1.1.8-2.6.6-3.4-.5-.799996-1.1-.6-2.6.5-3.4.3-.2 7.30001-5.4 17.00001-5.4 7.3 0 11.3 2 15.8 4.4 1.5.8 3 1.6 4.9 2.4 6.6 2.9 14.1 6.3 26.5-1.5 1.1-.7 2.6-.4 3.3.8.7 1.2.4 2.6-.8 3.3-6.5 4.2-12 5.6-16.8 5.6ZM52.1 44.3c-5.7 0-10.3-2-14.1-3.7-1.9-.9-3.6-1.7-5.1-2.5-4.3-2.2-7.5-3.9-13.6-3.9-8.1 0-14.1 4.4-14.1 4.4-1.1.8-2.6.6-3.4-.5-.8-1.1-.6-2.6.5-3.4.3-.2 7.3-5.4 17-5.4 7.3 0 11.3 2 15.8 4.4 1.5.8 3 1.6 4.9 2.4 6.6 2.9 14.1 6.3 26.5-1.5 1.1-.7 2.6-.4 3.3.8.7 1.2.4 2.6-.8 3.3-6.6 4.2-12.1 5.6-16.9 5.6ZM52.1 60c-5.7 0-10.3-2-14.1-3.7-1.9-.9-3.6-1.7-5.1-2.5-4.3-2.2-7.5-3.9-13.6-3.9-8.1 0-14.10001 4.4-14.20001 4.4-1.1.8-2.6.6-3.4-.5-.799996-1.1-.6-2.6.5-3.4C2.49999 50.2 9.5 45 19.2 45c7.3 0 11.3 2 15.8 4.4 1.5.8 3 1.6 4.9 2.4 6.6 2.9 14.1 6.3 26.5-1.5 1.1-.7 2.6-.4 3.3.8.7 1.2.4 2.6-.8 3.3-6.5 4.2-12 5.6-16.8 5.6Z" />
</svg>