<svg xmlns="http://www.w3.org/2000/svg" viewBox="0 0 64 64">
  <path d="M60 16.2C55.7 8.8 48.3 3.2 40 1 34.4-.3 29.3-.3 24.3 1 16 3.2 8.5 8.8 4.5 16.2 1.3 21.3 0 26.4 0 32v.8c.3 5.9 1.9 11.5 5.1 16.5 5.1 8 13.3 13.3 22.7 14.4 1.3.3 2.6.3 4.2.3 1.3 0 2.7 0 4-.3 9.6-1.1 17.9-6.4 22.9-14.7 3.2-4.8 4.8-10.7 5.1-16.5V32c0-5.4-1.3-10.7-4-15.8zm-9.6 29.1c1.3-3.5 2.1-6.9 2.1-10.7h5.9c-.3 3.7-1.6 7.5-3.5 10.7h-4.5zm-41.6 0c-1.9-3.2-2.9-6.9-3.5-10.7h5.6c.3 3.7 1.1 7.2 2.7 10.7H8.8zm4.3-24c-1.1 2.7-1.6 5.3-1.9 8H5.6c.3-2.7 1.1-5.3 2.1-8h5.4zm31.4 0c1.3 2.4 2.1 5.3 2.4 8H34.7v-8h9.8zM34.7 16V7.7c2.1 1.9 4.5 4.5 6.7 8.3h-6.7zm-5.4-8.3V16h-7.2c2.4-3.8 4.8-6.4 7.2-8.3zm0 13.6v8H16.5c.3-2.7 1.1-5.6 2.4-8h10.4zM16.5 34.6h12.8v10.7h-9.6c-1.8-3.2-2.9-6.9-3.2-10.7zm12.8 16v5.9c-2.1-1.6-4.3-3.5-6.1-5.9h6.1zm5.4 5.9v-5.9h6.7c-1.9 2.4-4.3 4.3-6.7 5.9zm0-11.2V34.6h12.5c-.3 3.7-1.1 7.5-2.7 10.7h-9.8zm17.6-16c-.3-2.7-1.1-5.3-2.1-8h6.1c1.1 2.7 1.9 5.3 2.1 8h-6.1zm1-13.3h-5.6c-2.1-3.5-4.3-6.7-6.4-9.1 4.8 1.9 9.1 5.1 12 9.1zM22.1 7.2c-2.1 2.4-4.3 5.3-6.4 8.8h-5.1c3-3.8 7-7 11.5-8.8zm-9.3 43.4h3.7c1.3 2.1 2.9 4 4.5 5.6-3.1-1.3-5.8-3.2-8.2-5.6zM43.7 56c1.6-1.6 2.9-3.5 4-5.3h3.2c-2.1 2.1-4.5 3.9-7.2 5.3z"/>
</svg>
